<svg xmlns="http://www.w3.org/2000/svg" xmlns:xlink="http://www.w3.org/1999/xlink" width="988" height="728.599" viewBox="0 0 988 728.599">
  <defs>
    <filter id="Rectángulo_3709" x="0" y="233.599" width="988" height="495" filterUnits="userSpaceOnUse">
      <feOffset dy="3" input="SourceAlpha"/>
      <feGaussianBlur stdDeviation="3" result="blur"/>
      <feFlood flood-opacity="0.161"/>
      <feComposite operator="in" in2="blur"/>
      <feComposite in="SourceGraphic"/>
    </filter>
  </defs>
  <g id="Grupo_29552" data-name="Grupo 29552" transform="translate(-459.5 -3054.401)">
    <path id="Trazado_56417" data-name="Trazado 56417" d="M2516.981,1778.31H1566.033a9.526,9.526,0,0,1-9.526-9.527h0a9.526,9.526,0,0,1,9.526-9.526h950.948a9.525,9.525,0,0,1,9.525,9.526h0A9.526,9.526,0,0,1,2516.981,1778.31Z" transform="translate(-1084.007 1951.223)" fill="#fee2bf"/>
    <g id="Grupo_28143" data-name="Grupo 28143" transform="translate(538.681 3064)">
      <path id="Trazado_56419" data-name="Trazado 56419" d="M1874.3,1698.382s-.937,6.324,5.856,9.6,12.882,6.559,12.882,10.307-42.163,2.342-42.163,0,7.965-22.253,7.965-22.253Z" transform="translate(-1767.672 -1217.018)" fill="#ff7446"/>
      <path id="Trazado_56420" data-name="Trazado 56420" d="M1767.913,1695.57v13.351s-15.459,10.54-29.748,10.54c0,0-11.477.411-11.477-2.605s7.984-8.524,17.639-13.251,9.226-15.608,9.226-15.608l14.361,2.42Z" transform="translate(-1709.778 -1213.268)" fill="#ff7446"/>
      <path id="Trazado_56421" data-name="Trazado 56421" d="M1767.433,1262.118c4.569-22.955,84.706-15.481,83.627,2.81,0,0-2.342,75.986-7.027,125.645s-6.879,101.552-6.879,101.552l-27.687-.361s11.289-190.4,5.775-195.916a7.515,7.515,0,0,0-4.944-2.319,8.145,8.145,0,0,0-8.41,7.178l-21.568,192.93-29.532-2.953S1762.864,1285.072,1767.433,1262.118Z" transform="translate(-1721.013 -1008.057)" fill="#352e73"/>
      <path id="Trazado_56422" data-name="Trazado 56422" d="M1870.819,1463.433c-1.83,30.2-3.961,53.165-6.2,70.327l-3.9-.05s11.289-190.4,5.775-195.916C1866.49,1337.794,1876.4,1371.285,1870.819,1463.433Z" transform="translate(-1772.261 -1050.003)" fill="#2d2861" opacity="0.53"/>
      <g id="Grupo_28138" data-name="Grupo 28138" transform="translate(81.286 488.167)">
        <path id="Trazado_56423" data-name="Trazado 56423" d="M1849.8,1718.751s-.545,3.255-1.908,8.8a23.625,23.625,0,0,0,0,10.609s56.712-.723,58.893-2.653.614-8.379,0-8.921-7.907-2.049-11.724-4.1-16.9-9.885-21.131-9.283-6,3.858-14.042,4.7S1851.709,1717.063,1849.8,1718.751Z" transform="translate(-1847.286 -1713.172)" fill="#fcc13f"/>
        <path id="Trazado_56424" data-name="Trazado 56424" d="M1906.786,1747.223c-2.181,1.929-58.893,2.653-58.893,2.653a23.711,23.711,0,0,1-.51-7.533c29.849,3.693,59.4-4.04,59.4-4.04C1907.4,1738.844,1908.968,1745.294,1906.786,1747.223Z" transform="translate(-1847.286 -1724.888)" fill="#d1f7fa"/>
        <path id="Trazado_56425" data-name="Trazado 56425" d="M1847.452,1742.342a154.571,154.571,0,0,0,59.4-4.04c-30.5,6.5-55.539,4.391-53.81,4.462Z" transform="translate(-1847.356 -1724.888)" fill="#7271b3"/>
      </g>
      <g id="Grupo_28139" data-name="Grupo 28139" transform="translate(2.438 489.163)">
        <path id="Trazado_56426" data-name="Trazado 56426" d="M1756.829,1719.165s.736,3.217,2.423,8.673a23.634,23.634,0,0,1,.624,10.59s-56.656,2.613-58.948.816-1.105-8.328-.524-8.905,7.773-2.511,11.463-4.781,16.294-10.862,20.549-10.509,6.215,3.5,14.294,3.867S1754.825,1717.593,1756.829,1719.165Z" transform="translate(-1699.575 -1715.038)" fill="#fcc13f"/>
        <path id="Trazado_56427" data-name="Trazado 56427" d="M1700.928,1752.606c2.291,1.8,58.948-.815,58.948-.815a23.7,23.7,0,0,0,.066-7.549c-29.581,5.442-59.538-.541-59.538-.541C1699.824,1744.279,1698.637,1750.809,1700.928,1752.606Z" transform="translate(-1699.575 -1728.401)" fill="#d1f7fa"/>
        <path id="Trazado_56428" data-name="Trazado 56428" d="M1760.665,1744.242a154.574,154.574,0,0,1-59.538-.541c30.831,4.7,55.7,1.119,53.98,1.291Z" transform="translate(-1700.298 -1728.401)" fill="#7271b3"/>
      </g>
      <path id="Trazado_56429" data-name="Trazado 56429" d="M2074.954,1005.67c.083-.105.165-.213.246-.322.911-1.24,0-3.642-3.061-4.855s-14.074,1.1-14.074,1.1,3.721-7.609,3.69-10.964-1.626-7.514-5.056-5.871-.083,3.133-2.043,7.593-4.222,4.324-6.409,7.3-.883,3.655-2.387,9.006-15.245,12.07-15.245,12.07l-13.408,9.022s10.352,21.139,13.753,18.78,20.835-17.733,21.382-17.816c9.208-1.4,17.642-1.328,22.018-4.637,2.331-1.76,2.172-3.187,1.514-4.137a2.721,2.721,0,0,1-.026-3.007,3,3,0,0,0,0-3.647,2.792,2.792,0,0,1-.332-2.772,3.145,3.145,0,0,0-.545-3.373A2.788,2.788,0,0,1,2074.954,1005.67Z" transform="translate(-1845.217 -885.246)" fill="#f25c12"/>
      <path id="Trazado_56430" data-name="Trazado 56430" d="M1925.465,965.984a34.969,34.969,0,0,1,13.091,19.1c3.208,12.57,10,47.3,14.615,46.6s33.867-32.107,37.619-21.1c3.571,10.486,7.361,15.768,9.42,22.279,2.561,8.1-29.053,30.556-51.831,35.224S1925.465,965.984,1925.465,965.984Z" transform="translate(-1802.448 -876.665)" fill="#8cd334"/>
      <path id="Trazado_56431" data-name="Trazado 56431" d="M1996.978,1025.12c-12.329,13.618-47.024,33.662-53.747,32.857-7.87-.941-17.762-91.96-17.766-91.993h0c.025,20.64,2.52,106.314,23,102.088,22.772-4.706,54.306-27.121,51.748-35.207A59.255,59.255,0,0,0,1996.978,1025.12Z" transform="translate(-1802.448 -876.665)" fill="#2ba14c"/>
      <path id="Trazado_56432" data-name="Trazado 56432" d="M1709.277,987.311c16.852-44.49,38.977-43.91,38.977-43.91l39.673-.1s26.337,8.031,30.4,12.1,9.01,158.8,9.01,164.87-83.463-2.2-83.8-5.377c-1.871-17.934-6.967-58.37-7.653-84.85a39.3,39.3,0,0,0-8.414,24.342c0,7.248,8.154,33.148,13.611,51.949l-18.357,11.52c-9.615-14.987-21.648-34.43-24.576-42.236C1693.1,1062.134,1692.426,1031.8,1709.277,987.311Z" transform="translate(-1695.009 -866.09)" fill="#8cd334"/>
      <g id="Grupo_28140" data-name="Grupo 28140" transform="translate(68.132)">
        <path id="Trazado_56433" data-name="Trazado 56433" d="M1837.354,880.37s-.456,28.157-.456,35.2c0,5.924,11.316,12.854,16.937,13.012,7.779.22,9.719-6.944,9.719-6.944v-26.7Z" transform="translate(-1829.29 -836.751)" fill="#f25c12"/>
        <path id="Trazado_56434" data-name="Trazado 56434" d="M1863.94,913.423V902.341l-12.792-7.111c-.245-.1-.49-.2-.733-.323a9.926,9.926,0,0,1-1.423-.875l-11.251-6.255s-.005.294-.013.822l.013.086s.94,10.4,5.965,16.88C1847.748,910.776,1856.866,914.586,1863.94,913.423Z" transform="translate(-1829.676 -840.205)" fill="#ff682b" opacity="0.68" style="mix-blend-mode: multiply;isolation: isolate"/>
        <path id="Trazado_56435" data-name="Trazado 56435" d="M1842.29,818.877s-6.935,17.479-4.751,30.519,24.918,28.811,34.168,22.943,5.166-20.61,4.945-24.043,2.411-19.419-1.115-24.87S1847.96,813.036,1842.29,818.877Z" transform="translate(-1829.39 -806.856)" fill="#ff7446"/>
        <path id="Trazado_56436" data-name="Trazado 56436" d="M1860.182,800.371c-13.468-4-28.106-.62-33.186,6.193-11.508,15.434,3.455,39.521,3.455,39.521s2.236,10.6,8.24,16.908,20.56,9.829,28.052,4.48,4.045-20.753,4.045-20.753-.888,3.72-4.01,3.92-3.843-1.739-5.272-1.891c-5.2-.553-7.332.878-11.674,2.982a5.511,5.511,0,0,1-4.405-.182,10.652,10.652,0,0,1-6.88-10.378l.49-11.05a33.233,33.233,0,0,0,9.934-9.156c2.973,7.919,21.668,4.87,24.237.872S1873.649,804.37,1860.182,800.371Z" transform="translate(-1822.645 -798.656)" fill="#2d2861"/>
        <path id="Trazado_56437" data-name="Trazado 56437" d="M1839.677,857.692s-2.636-4.033-5.483-2.562.061,14.549,3.581,14.322S1839.677,857.692,1839.677,857.692Z" transform="translate(-1827.493 -824.834)" fill="#ff7446"/>
      </g>
      <g id="Grupo_28142" data-name="Grupo 28142" transform="translate(6.588 267.045)">
        <rect id="Rectángulo_5539" data-name="Rectángulo 5539" width="104.147" height="70.911" transform="matrix(0.94, -0.342, 0.342, 0.94, 0, 40.973)" fill="#fcc13f"/>
        <path id="Trazado_56438" data-name="Trazado 56438" d="M1871.572,1385.649l27.512-10.006L1874.848,1309l-18.156,6.6C1859.214,1330.624,1865.036,1363.223,1871.572,1385.649Z" transform="translate(-1776.973 -1303.626)" fill="#ffa42f"/>
        <g id="Grupo_28141" data-name="Grupo 28141" transform="translate(25.814)">
          <path id="Trazado_56439" data-name="Trazado 56439" d="M1797.251,1322.383l-5.527,2.01-5.56-15.286a6.531,6.531,0,0,0-8.362-3.9l-11.917,4.334a6.531,6.531,0,0,0-3.9,8.362l5.559,15.285-5.527,2.01-5.559-15.286a12.42,12.42,0,0,1,7.418-15.9l11.918-4.334a12.419,12.419,0,0,1,15.9,7.419Z" transform="translate(-1755.709 -1298.93)" fill="#fcc13f"/>
        </g>
      </g>
      <path id="Trazado_56440" data-name="Trazado 56440" d="M1764.754,1249.787a155.109,155.109,0,0,0,5.318,14.967c.722,1.653,1.691,4.828,2.852,6.21,4.605,5.488,9.672,10.424,8.574,14.487-1.585,5.863-14,16.445-19.668,14.264-7.146-2.749-5.606-26.479-7.69-29.643-2.331-3.537-2.641-3.711-6.417-9.6Z" transform="translate(-1719.584 -1008.974)" fill="#ff7446"/>
      <path id="Trazado_56441" data-name="Trazado 56441" d="M1777.787,1116.308c0-22.481,10.66-57.417,5.277-82.748,0,0-3.8,25.014-11.466,38.559.573,22.111,4.219,53.952,6.5,74.3C1777.961,1140.539,1777.787,1130.2,1777.787,1116.308Z" transform="translate(-1730.715 -908.169)" fill="#2ba14c"/>
    </g>
    <g id="Grupo_29371" data-name="Grupo 29371" transform="translate(32.5 211)">
      <path id="Trazado_56418" data-name="Trazado 56418" d="M2025.571,591.088c-3.023-29.445,14.165-39.5,57.936-41.573,63.831-3.024,76.639,8.71,62.833,50.86-14.11,43.079-58.485,26.048-85.917,26.048S2027.18,606.753,2025.571,591.088Z" transform="translate(-1362.734 2294.335)" fill="#7271b3"/>
      <g id="Grupo_28144" data-name="Grupo 28144" transform="translate(708.932 2858.88)">
        <path id="Trazado_56442" data-name="Trazado 56442" d="M2239.2,620.408l-24.91,38.259a2.062,2.062,0,0,0,1.728,3.188h0a2.062,2.062,0,0,0,1.727-.935l24.949-38.234a2.085,2.085,0,0,0-1.746-3.224h0A2.084,2.084,0,0,0,2239.2,620.408Z" transform="translate(-2211.088 -616.55)" fill="#f2f1fd"/>
        <path id="Trazado_56443" data-name="Trazado 56443" d="M2268.52,723.649c0,3.624,1.225,6.947,4.635,8.281a8.352,8.352,0,0,0,9.241-2.04c2.475-2.86,2.7-7.252,1.68-10.291C2281.433,711.745,2268.52,712.918,2268.52,723.649Zm8.041,5.04c-2.764,0-3.631-2.374-3.631-5.16,0-5.732,4.534-6.2,6.316-3.9C2280.929,721.8,2280.746,728.689,2276.561,728.689Z" transform="translate(-2251.398 -686.775)" fill="#f2f1fd"/>
        <path id="Trazado_56444" data-name="Trazado 56444" d="M2202.977,617.451c0,3.625,1.225,6.947,4.635,8.281a8.352,8.352,0,0,0,9.241-2.04c2.476-2.86,2.7-7.252,1.68-10.291C2215.889,605.548,2202.977,606.721,2202.977,617.451Zm8.041,5.041c-2.765,0-3.63-2.374-3.63-5.161,0-5.732,4.534-6.2,6.315-3.9C2215.386,615.607,2215.2,622.492,2211.018,622.492Z" transform="translate(-2202.977 -608.319)" fill="#f2f1fd"/>
      </g>
      <path id="Trazado_56467" data-name="Trazado 56467" d="M2007.543,742.341c-11.184,9.942-11.93,19.386-11.93,19.386,4.722-5.965,16.9-7.207,16.9-7.207C2009.034,746.566,2007.543,742.341,2007.543,742.341Z" transform="translate(-1336.113 2158.549)" fill="#7271b3"/>
    </g>
    <g id="Grupo_29187" data-name="Grupo 29187" transform="translate(253.5 2234)">
      <g transform="matrix(1, 0, 0, 1, 206, 820.4)" filter="url(#Rectángulo_3709)">
        <rect id="Rectángulo_3709-2" data-name="Rectángulo 3709" width="970" height="477" rx="22" transform="translate(9 239.6)" fill="#f2f2f0"/>
      </g>
    </g>
    <g id="Grupo_28128" data-name="Grupo 28128" transform="translate(13.5 1913)">
      <g id="Grupo_24147" data-name="Grupo 24147" transform="translate(244 -3212)">
        <g id="Grupo_12823" data-name="Grupo 12823" transform="translate(-62.25 -1648)">
          <rect id="Rectángulo_3055" data-name="Rectángulo 3055" width="380" height="75" transform="translate(297 6410)" fill="#cddc39"/>
        </g>
        <path id="Trazado_49534" data-name="Trazado 49534" d="M0,0H305V92H0Z" transform="translate(547.25 4620)" fill="#283593"/>
        <path id="Trazado_49536" data-name="Trazado 49536" d="M0,0H25" transform="translate(697.25 4712) rotate(90)" fill="none" stroke="#ff8f00" stroke-width="3"/>
        <g id="Grupo_20989" data-name="Grupo 20989" transform="translate(487.75 -1648)">
          <rect id="Rectángulo_3055-2" data-name="Rectángulo 3055" width="380" height="75" transform="translate(297 6410)" fill="#cddc39"/>
        </g>
        <path id="Trazado_49537" data-name="Trazado 49537" d="M0,0H336V66H0Z" transform="translate(829.25 4879)" fill="#cddc39"/>
        <path id="Trazado_49539" data-name="Trazado 49539" d="M0,0H336V66H0Z" transform="translate(829.25 4962)" fill="#cddc39"/>
        <g id="Grupo_12815" data-name="Grupo 12815" transform="translate(549.25 -618)">
          <line id="Línea_142" data-name="Línea 142" y2="158" transform="translate(255.5 5455.5)" fill="none" stroke="#ff8f00" stroke-width="3"/>
          <line id="Línea_143" data-name="Línea 143" x2="25" transform="translate(255.5 5530.5)" fill="none" stroke="#ff8f00" stroke-width="3"/>
          <line id="Línea_144" data-name="Línea 144" x2="25" transform="translate(255.5 5613.5)" fill="none" stroke="#ff8f00" stroke-width="3"/>
        </g>
        <g id="Grupo_12821" data-name="Grupo 12821" transform="translate(41.75 -1616)">
          <line id="Línea_142-2" data-name="Línea 142" x1="589.5" transform="translate(363.5 6353.5)" fill="none" stroke="#ff8f00" stroke-width="3"/>
          <line id="Línea_143-2" data-name="Línea 143" x2="25" transform="translate(952.5 6353) rotate(90)" fill="none" stroke="#ff8f00" stroke-width="3"/>
          <line id="Línea_151" data-name="Línea 151" x2="25" transform="translate(364 6353) rotate(90)" fill="none" stroke="#ff8f00" stroke-width="3"/>
        </g>
        <path id="Trazado_49542" data-name="Trazado 49542" d="M0,0H336V66H0Z" transform="translate(279 4879)" fill="#cddc39"/>
        <path id="Trazado_49543" data-name="Trazado 49543" d="M0,0H336V66H0Z" transform="translate(279 4962)" fill="#cddc39"/>
        <g id="Grupo_21000" data-name="Grupo 21000" transform="translate(-1 -618)">
          <line id="Línea_142-3" data-name="Línea 142" y2="158" transform="translate(255.5 5455.5)" fill="none" stroke="#ff8f00" stroke-width="3"/>
          <line id="Línea_143-3" data-name="Línea 143" x2="25" transform="translate(255.5 5530.5)" fill="none" stroke="#ff8f00" stroke-width="3"/>
          <line id="Línea_144-2" data-name="Línea 144" x2="25" transform="translate(255.5 5613.5)" fill="none" stroke="#ff8f00" stroke-width="3"/>
        </g>
      </g>
      <path id="Trazado_57649" data-name="Trazado 57649" d="M9.009,4.3V6.62H5.994V17H3.384V6.62H.352V4.3Zm2.953,2.312a1.421,1.421,0,0,1-1.037-.426,1.4,1.4,0,0,1-.431-1.033,1.382,1.382,0,0,1,.435-1.024A1.425,1.425,0,0,1,11.962,3.7a1.463,1.463,0,0,1,1.45,1.45,1.463,1.463,0,0,1-1.45,1.459ZM10.67,17V7.965h2.549V17ZM21.138,7.789a4.394,4.394,0,0,1,1.688.325,4.223,4.223,0,0,1,1.384.914,4.135,4.135,0,0,1,.936,1.49,5.531,5.531,0,0,1,.343,1.982,5.531,5.531,0,0,1-.343,1.982,4.135,4.135,0,0,1-.936,1.49,4.223,4.223,0,0,1-1.384.914,4.394,4.394,0,0,1-1.687.325,3.921,3.921,0,0,1-1.635-.334,2.562,2.562,0,0,1-1.134-.949v5.467H15.838V7.965h2.4l.07,1.213a2.475,2.475,0,0,1,1.129-1.024A3.881,3.881,0,0,1,21.138,7.789Zm-.571,7.321a2.274,2.274,0,0,0,1.709-.708,2.628,2.628,0,0,0,.681-1.9,2.628,2.628,0,0,0-.681-1.9,2.419,2.419,0,0,0-3.432.013,2.629,2.629,0,0,0-.686,1.89,2.629,2.629,0,0,0,.686,1.89A2.278,2.278,0,0,0,20.566,15.11Zm11.039,2.065a5.681,5.681,0,0,1-2.558-.554A4.138,4.138,0,0,1,27.294,15a4.846,4.846,0,0,1-.637-2.522,4.42,4.42,0,0,1,1.371-3.428,5.086,5.086,0,0,1,3.577-1.257,5.1,5.1,0,0,1,3.586,1.257,4.42,4.42,0,0,1,1.371,3.428,4.444,4.444,0,0,1-1.371,3.441A5.088,5.088,0,0,1,31.605,17.176Zm-.026-2.013a2.319,2.319,0,0,0,1.789-.738,2.764,2.764,0,0,0,.681-1.951,2.764,2.764,0,0,0-.681-1.951,2.319,2.319,0,0,0-1.789-.738,2.234,2.234,0,0,0-1.736.743,2.789,2.789,0,0,0-.672,1.947,2.789,2.789,0,0,0,.672,1.947A2.234,2.234,0,0,0,31.579,15.163ZM49.526,3.5h2.531V17h-2.4L49.6,15.822a2.58,2.58,0,0,1-1.147,1.024,3.861,3.861,0,0,1-1.692.365,4.394,4.394,0,0,1-1.687-.325,4.064,4.064,0,0,1-2.32-2.408,5.5,5.5,0,0,1-.343-1.978A5.137,5.137,0,0,1,43,9.982a4.1,4.1,0,0,1,1.578-1.639,4.345,4.345,0,0,1,2.175-.554,3.957,3.957,0,0,1,1.639.33,2.559,2.559,0,0,1,1.129.936ZM47.338,15.11a2.253,2.253,0,0,0,1.709-.721,2.638,2.638,0,0,0,.681-1.89,2.644,2.644,0,0,0-.686-1.894,2.251,2.251,0,0,0-1.705-.725,2.277,2.277,0,0,0-1.718.712,2.644,2.644,0,0,0-.681,1.907,2.631,2.631,0,0,0,.681,1.9A2.277,2.277,0,0,0,47.338,15.11Zm15.838-2.76-.026.606h-6.7a2.339,2.339,0,0,0,.721,1.652,2.3,2.3,0,0,0,1.591.571,2.221,2.221,0,0,0,1.191-.312,1.918,1.918,0,0,0,.76-.91l2.32.343a3.945,3.945,0,0,1-1.582,2.118,4.7,4.7,0,0,1-2.672.756,4.891,4.891,0,0,1-3.52-1.244,4.538,4.538,0,0,1-1.305-3.45,4.565,4.565,0,0,1,1.31-3.45A4.746,4.746,0,0,1,58.7,7.771a4.536,4.536,0,0,1,3.243,1.151A4.517,4.517,0,0,1,63.176,12.351ZM58.72,9.564a2,2,0,0,0-2.2,1.74h4.148a1.9,1.9,0,0,0-.624-1.292A1.978,1.978,0,0,0,58.72,9.564Zm16.937-1.6h2.681L74.487,17h-2.2L68.484,7.965h2.663l2.25,6.179Zm11.057,6.583a8.453,8.453,0,0,0,.22,2.206V17H84.568l-.2-.984a2.938,2.938,0,0,1-1.266.87,4.664,4.664,0,0,1-1.635.29,4.3,4.3,0,0,1-.844-.079,2.868,2.868,0,0,1-.76-.268,2.307,2.307,0,0,1-.628-.47,2.062,2.062,0,0,1-.422-.716,2.853,2.853,0,0,1-.158-.98,2.718,2.718,0,0,1,.167-.98,2.3,2.3,0,0,1,.439-.734,2.666,2.666,0,0,1,.712-.536,5.447,5.447,0,0,1,.9-.387,10.712,10.712,0,0,1,1.072-.281l1.485-.334a1.638,1.638,0,0,0,.672-.286.57.57,0,0,0,.2-.453.932.932,0,0,0-.444-.87,2.073,2.073,0,0,0-1.077-.264,1.549,1.549,0,0,0-1.767,1.38l-2.241-.4a3.034,3.034,0,0,1,1.31-2.061,5.2,5.2,0,0,1,2.839-.664q3.8,0,3.8,3.261Zm-4.456.914a2.036,2.036,0,0,0,1.564-.655,2.759,2.759,0,0,0,.606-1.938l-2.145.606a2.534,2.534,0,0,0-.9.369.758.758,0,0,0-.312.65.842.842,0,0,0,.334.716A1.382,1.382,0,0,0,82.257,15.462ZM91.6,9.4a2.933,2.933,0,0,1,1.187-1.085,3.62,3.62,0,0,1,1.767-.453v2.259a3.423,3.423,0,0,0-2.162.545,2.379,2.379,0,0,0-.668,1.934V17H89.174V7.965H91.6Zm5.73-2.786a1.421,1.421,0,0,1-1.037-.426,1.4,1.4,0,0,1-.431-1.033A1.382,1.382,0,0,1,96.3,4.128,1.425,1.425,0,0,1,97.33,3.7a1.463,1.463,0,0,1,1.45,1.45,1.463,1.463,0,0,1-1.45,1.459ZM96.038,17V7.965h2.549V17Zm12.577-2.452a8.453,8.453,0,0,0,.22,2.206V17h-2.364l-.2-.984a2.938,2.938,0,0,1-1.266.87,4.664,4.664,0,0,1-1.635.29,4.3,4.3,0,0,1-.844-.079,2.868,2.868,0,0,1-.76-.268,2.307,2.307,0,0,1-.628-.47,2.062,2.062,0,0,1-.422-.716,2.853,2.853,0,0,1-.158-.98,2.718,2.718,0,0,1,.167-.98,2.3,2.3,0,0,1,.439-.734,2.666,2.666,0,0,1,.712-.536,5.447,5.447,0,0,1,.9-.387,10.712,10.712,0,0,1,1.072-.281l1.485-.334a1.638,1.638,0,0,0,.672-.286.57.57,0,0,0,.2-.453.932.932,0,0,0-.444-.87,2.073,2.073,0,0,0-1.077-.264,1.549,1.549,0,0,0-1.767,1.38l-2.241-.4a3.034,3.034,0,0,1,1.31-2.061,5.2,5.2,0,0,1,2.839-.664q3.8,0,3.8,3.261Zm-4.456.914a2.036,2.036,0,0,0,1.564-.655,2.759,2.759,0,0,0,.606-1.938l-2.145.606a2.534,2.534,0,0,0-.9.369.758.758,0,0,0-.312.65.842.842,0,0,0,.334.716A1.382,1.382,0,0,0,104.159,15.462Zm12.226-7.673a4.372,4.372,0,0,1,1.679.325,4.064,4.064,0,0,1,2.32,2.408,5.5,5.5,0,0,1,.343,1.978,5.5,5.5,0,0,1-.343,1.978,4.064,4.064,0,0,1-2.32,2.408,4.372,4.372,0,0,1-1.679.325,3.9,3.9,0,0,1-1.709-.365,2.527,2.527,0,0,1-1.138-1.024L113.476,17h-2.4V3.5h2.531V9.063a2.522,2.522,0,0,1,1.129-.94A3.973,3.973,0,0,1,116.385,7.789ZM115.8,15.11a2.277,2.277,0,0,0,1.718-.712,2.631,2.631,0,0,0,.681-1.9,2.644,2.644,0,0,0-.681-1.907,2.277,2.277,0,0,0-1.718-.712,2.251,2.251,0,0,0-1.705.725,2.644,2.644,0,0,0-.686,1.894,2.638,2.638,0,0,0,.681,1.89A2.253,2.253,0,0,0,115.8,15.11ZM122.634,17V3.5h2.558V17Zm13.676-4.649-.026.606h-6.7a2.339,2.339,0,0,0,.721,1.652,2.3,2.3,0,0,0,1.591.571,2.221,2.221,0,0,0,1.191-.312,1.918,1.918,0,0,0,.76-.91l2.32.343a3.945,3.945,0,0,1-1.582,2.118,4.7,4.7,0,0,1-2.672.756,4.891,4.891,0,0,1-3.52-1.244,4.538,4.538,0,0,1-1.305-3.45,4.565,4.565,0,0,1,1.31-3.45,4.746,4.746,0,0,1,3.437-1.261,4.536,4.536,0,0,1,3.243,1.151A4.517,4.517,0,0,1,136.31,12.351Zm-4.456-2.786a2,2,0,0,0-2.2,1.74H133.8a1.9,1.9,0,0,0-.624-1.292A1.978,1.978,0,0,0,131.854,9.564Zm9.563,7.611a5.049,5.049,0,0,1-2.637-.633,2.675,2.675,0,0,1-1.292-1.881l2.118-.6a1.7,1.7,0,0,0,1.811,1.345,1.87,1.87,0,0,0,.923-.207.719.719,0,0,0,.36-.7.739.739,0,0,0-.149-.466,1.183,1.183,0,0,0-.461-.334,5.749,5.749,0,0,0-.615-.237q-.3-.1-.8-.233t-.835-.259a5.593,5.593,0,0,1-.8-.338,3.393,3.393,0,0,1-.659-.466,1.878,1.878,0,0,1-.492-.708,2.552,2.552,0,0,1-.171-.967,2.308,2.308,0,0,1,.98-2.021,4.379,4.379,0,0,1,2.562-.686,4.489,4.489,0,0,1,2.364.58,2.625,2.625,0,0,1,1.213,1.811l-1.96.439a1.535,1.535,0,0,0-1.608-1.143,1.761,1.761,0,0,0-.888.2.649.649,0,0,0-.352.6.685.685,0,0,0,.053.272.539.539,0,0,0,.185.22,2.692,2.692,0,0,0,.255.167,1.923,1.923,0,0,0,.36.145q.237.075.4.114l.461.119.47.123q.483.132.848.264a4.967,4.967,0,0,1,.778.369,2.792,2.792,0,0,1,.681.532,2.372,2.372,0,0,1,.444.747,2.759,2.759,0,0,1,.176,1.006,2.718,2.718,0,0,1-.3,1.31,2.276,2.276,0,0,1-.831.883,4.043,4.043,0,0,1-1.173.475A6.087,6.087,0,0,1,141.416,17.176Zm18.712-4.825-.026.606h-6.7a2.339,2.339,0,0,0,.721,1.652,2.3,2.3,0,0,0,1.591.571,2.221,2.221,0,0,0,1.191-.312,1.918,1.918,0,0,0,.76-.91l2.32.343a3.945,3.945,0,0,1-1.582,2.118,4.7,4.7,0,0,1-2.672.756,4.891,4.891,0,0,1-3.52-1.244,4.538,4.538,0,0,1-1.305-3.45,4.565,4.565,0,0,1,1.31-3.45,4.746,4.746,0,0,1,3.437-1.261A4.536,4.536,0,0,1,158.9,8.923,4.517,4.517,0,0,1,160.128,12.351Zm-4.456-2.786a2,2,0,0,0-2.2,1.74h4.148A1.9,1.9,0,0,0,157,10.013,1.978,1.978,0,0,0,155.672,9.564Zm9.563,7.611a5.049,5.049,0,0,1-2.637-.633,2.675,2.675,0,0,1-1.292-1.881l2.118-.6a1.7,1.7,0,0,0,1.811,1.345,1.87,1.87,0,0,0,.923-.207.719.719,0,0,0,.36-.7.739.739,0,0,0-.149-.466,1.183,1.183,0,0,0-.461-.334,5.749,5.749,0,0,0-.615-.237q-.3-.1-.8-.233t-.835-.259a5.593,5.593,0,0,1-.8-.338,3.393,3.393,0,0,1-.659-.466,1.878,1.878,0,0,1-.492-.708,2.552,2.552,0,0,1-.171-.967,2.308,2.308,0,0,1,.98-2.021,4.379,4.379,0,0,1,2.562-.686,4.489,4.489,0,0,1,2.364.58,2.625,2.625,0,0,1,1.213,1.811l-1.96.439a1.535,1.535,0,0,0-1.608-1.143,1.761,1.761,0,0,0-.888.2.649.649,0,0,0-.352.6.685.685,0,0,0,.053.272.539.539,0,0,0,.185.22,2.692,2.692,0,0,0,.255.167,1.923,1.923,0,0,0,.36.145q.237.075.4.114l.461.119.47.123q.483.132.848.264a4.967,4.967,0,0,1,.778.369,2.792,2.792,0,0,1,.681.532,2.372,2.372,0,0,1,.444.747,2.759,2.759,0,0,1,.176,1.006,2.718,2.718,0,0,1-.3,1.31,2.276,2.276,0,0,1-.831.883,4.043,4.043,0,0,1-1.173.475A6.087,6.087,0,0,1,165.234,17.176Zm8.9-.176a2.729,2.729,0,0,1-2.039-.734,2.854,2.854,0,0,1-.721-2.087V9.907H169.6V7.965h.571a1.491,1.491,0,0,0,1.125-.378,1.946,1.946,0,0,0,.36-1.345v-1.2h2.285V7.965h1.863V9.907h-1.863v4q0,1.169,1.046,1.169h.817V17Zm11-2.452a8.453,8.453,0,0,0,.22,2.206V17H183l-.2-.984a2.938,2.938,0,0,1-1.266.87,4.664,4.664,0,0,1-1.635.29,4.3,4.3,0,0,1-.844-.079,2.868,2.868,0,0,1-.76-.268,2.307,2.307,0,0,1-.628-.47,2.062,2.062,0,0,1-.422-.716,2.853,2.853,0,0,1-.158-.98,2.718,2.718,0,0,1,.167-.98,2.3,2.3,0,0,1,.439-.734,2.666,2.666,0,0,1,.712-.536,5.447,5.447,0,0,1,.9-.387,10.712,10.712,0,0,1,1.072-.281l1.485-.334a1.638,1.638,0,0,0,.672-.286.57.57,0,0,0,.2-.453.932.932,0,0,0-.444-.87,2.073,2.073,0,0,0-1.077-.264,1.549,1.549,0,0,0-1.767,1.38l-2.241-.4a3.034,3.034,0,0,1,1.31-2.061,5.2,5.2,0,0,1,2.839-.664q3.8,0,3.8,3.261Zm-4.456.914a2.036,2.036,0,0,0,1.564-.655,2.759,2.759,0,0,0,.606-1.938l-2.145.606a2.534,2.534,0,0,0-.9.369.758.758,0,0,0-.312.65.842.842,0,0,0,.334.716A1.382,1.382,0,0,0,180.686,15.462ZM193.808,3.5h2.531V17h-2.4l-.062-1.178a2.58,2.58,0,0,1-1.147,1.024,3.861,3.861,0,0,1-1.692.365,4.394,4.394,0,0,1-1.687-.325,4.064,4.064,0,0,1-2.32-2.408,5.5,5.5,0,0,1-.343-1.978,5.137,5.137,0,0,1,.6-2.518,4.1,4.1,0,0,1,1.578-1.639,4.345,4.345,0,0,1,2.175-.554,3.957,3.957,0,0,1,1.639.33,2.559,2.559,0,0,1,1.129.936Zm-2.188,11.61a2.253,2.253,0,0,0,1.709-.721,2.638,2.638,0,0,0,.681-1.89,2.644,2.644,0,0,0-.686-1.894,2.251,2.251,0,0,0-1.705-.725,2.277,2.277,0,0,0-1.718.712,2.644,2.644,0,0,0-.681,1.907,2.631,2.631,0,0,0,.681,1.9A2.277,2.277,0,0,0,191.619,15.11Zm7.84-8.385,2.3-3.234,1.248.879-2,2.355ZM198.958,17V7.965h2.549V17Zm8.35.176a5.049,5.049,0,0,1-2.637-.633,2.675,2.675,0,0,1-1.292-1.881l2.118-.6a1.7,1.7,0,0,0,1.811,1.345,1.87,1.87,0,0,0,.923-.207.719.719,0,0,0,.36-.7.739.739,0,0,0-.149-.466,1.183,1.183,0,0,0-.461-.334,5.749,5.749,0,0,0-.615-.237q-.3-.1-.8-.233t-.835-.259a5.593,5.593,0,0,1-.8-.338,3.393,3.393,0,0,1-.659-.466,1.878,1.878,0,0,1-.492-.708,2.552,2.552,0,0,1-.171-.967,2.308,2.308,0,0,1,.98-2.021,4.379,4.379,0,0,1,2.562-.686,4.489,4.489,0,0,1,2.364.58,2.625,2.625,0,0,1,1.213,1.811l-1.96.439a1.535,1.535,0,0,0-1.608-1.143,1.761,1.761,0,0,0-.888.2.649.649,0,0,0-.352.6.685.685,0,0,0,.053.272.539.539,0,0,0,.185.22,2.692,2.692,0,0,0,.255.167,1.923,1.923,0,0,0,.36.145q.237.075.4.114l.461.119.47.123q.483.132.848.264a4.967,4.967,0,0,1,.778.369,2.792,2.792,0,0,1,.681.532,2.372,2.372,0,0,1,.444.747,2.759,2.759,0,0,1,.176,1.006,2.718,2.718,0,0,1-.3,1.31,2.276,2.276,0,0,1-.831.883,4.043,4.043,0,0,1-1.173.475A6.087,6.087,0,0,1,207.308,17.176Zm8.9-.176a2.729,2.729,0,0,1-2.039-.734,2.854,2.854,0,0,1-.721-2.087V9.907h-1.775V7.965h.571a1.491,1.491,0,0,0,1.125-.378,1.946,1.946,0,0,0,.36-1.345v-1.2h2.285V7.965h1.863V9.907h-1.863v4q0,1.169,1.046,1.169h.817V17Zm4.922-10.389a1.421,1.421,0,0,1-1.037-.426,1.4,1.4,0,0,1-.431-1.033,1.382,1.382,0,0,1,.435-1.024,1.425,1.425,0,0,1,1.033-.426,1.463,1.463,0,0,1,1.45,1.45,1.463,1.463,0,0,1-1.45,1.459ZM219.841,17V7.965h2.549V17Zm9.255.167a4.827,4.827,0,0,1-3.489-1.3,4.493,4.493,0,0,1-1.354-3.393A4.483,4.483,0,0,1,225.6,9.081a5.364,5.364,0,0,1,6.42-.422,3.885,3.885,0,0,1,1.512,2.452l-2.338.255a2,2,0,0,0-.756-1.187,2.3,2.3,0,0,0-1.371-.4,2.072,2.072,0,0,0-1.652.738,2.894,2.894,0,0,0-.633,1.951,2.9,2.9,0,0,0,.633,1.947,2.067,2.067,0,0,0,1.652.743,2.278,2.278,0,0,0,1.367-.4,2.05,2.05,0,0,0,.76-1.187l2.338.255a3.9,3.9,0,0,1-1.525,2.452A4.8,4.8,0,0,1,229.1,17.167Zm13.649-2.619a8.453,8.453,0,0,0,.22,2.206V17H240.6l-.2-.984a2.938,2.938,0,0,1-1.266.87,4.664,4.664,0,0,1-1.635.29,4.3,4.3,0,0,1-.844-.079,2.868,2.868,0,0,1-.76-.268,2.307,2.307,0,0,1-.628-.47,2.062,2.062,0,0,1-.422-.716,2.853,2.853,0,0,1-.158-.98,2.718,2.718,0,0,1,.167-.98,2.3,2.3,0,0,1,.439-.734,2.666,2.666,0,0,1,.712-.536,5.447,5.447,0,0,1,.9-.387,10.712,10.712,0,0,1,1.072-.281l1.485-.334a1.638,1.638,0,0,0,.672-.286.57.57,0,0,0,.2-.453.932.932,0,0,0-.444-.87,2.073,2.073,0,0,0-1.077-.264,1.549,1.549,0,0,0-1.767,1.38l-2.241-.4a3.034,3.034,0,0,1,1.31-2.061,5.2,5.2,0,0,1,2.839-.664q3.8,0,3.8,3.261Zm-4.456.914a2.036,2.036,0,0,0,1.564-.655,2.759,2.759,0,0,0,.606-1.938l-2.145.606a2.534,2.534,0,0,0-.9.369.758.758,0,0,0-.312.65.842.842,0,0,0,.334.716A1.382,1.382,0,0,0,238.289,15.462Zm10.1,1.714a5.049,5.049,0,0,1-2.637-.633,2.675,2.675,0,0,1-1.292-1.881l2.118-.6a1.7,1.7,0,0,0,1.811,1.345,1.87,1.87,0,0,0,.923-.207.719.719,0,0,0,.36-.7.739.739,0,0,0-.149-.466,1.183,1.183,0,0,0-.461-.334,5.749,5.749,0,0,0-.615-.237q-.3-.1-.8-.233t-.835-.259a5.593,5.593,0,0,1-.8-.338,3.393,3.393,0,0,1-.659-.466,1.878,1.878,0,0,1-.492-.708,2.552,2.552,0,0,1-.171-.967,2.308,2.308,0,0,1,.98-2.021,4.379,4.379,0,0,1,2.562-.686,4.489,4.489,0,0,1,2.364.58,2.625,2.625,0,0,1,1.213,1.811l-1.96.439a1.535,1.535,0,0,0-1.608-1.143,1.761,1.761,0,0,0-.888.2.649.649,0,0,0-.352.6.685.685,0,0,0,.053.272.539.539,0,0,0,.185.22,2.692,2.692,0,0,0,.255.167,1.923,1.923,0,0,0,.36.145q.237.075.4.114l.461.119.47.123q.483.132.848.264a4.967,4.967,0,0,1,.778.369,2.792,2.792,0,0,1,.681.532,2.372,2.372,0,0,1,.444.747,2.759,2.759,0,0,1,.176,1.006,2.718,2.718,0,0,1-.3,1.31,2.276,2.276,0,0,1-.831.883,4.043,4.043,0,0,1-1.173.475A6.087,6.087,0,0,1,248.388,17.176Z" transform="translate(817 1444.731)" fill="#fff"/>
      <path id="Trazado_57651" data-name="Trazado 57651" d="M122.2,17.176a7.089,7.089,0,0,1-2.588-.466,6.087,6.087,0,0,1-2.061-1.3,5.864,5.864,0,0,1-1.354-2.065,7.2,7.2,0,0,1-.492-2.7,6.879,6.879,0,0,1,.844-3.45,5.744,5.744,0,0,1,2.316-2.281,6.935,6.935,0,0,1,3.335-.791,6.739,6.739,0,0,1,3.727,1.028,5.629,5.629,0,0,1,2.276,2.83l-2.461.9a3.479,3.479,0,0,0-1.362-1.714,3.891,3.891,0,0,0-2.18-.615,3.73,3.73,0,0,0-2.777,1.107,4.075,4.075,0,0,0-1.09,2.988,4.081,4.081,0,0,0,1.094,2.993A3.726,3.726,0,0,0,122.2,14.75a3.876,3.876,0,0,0,2.175-.62,3.5,3.5,0,0,0,1.367-1.718l2.461.9a5.652,5.652,0,0,1-2.276,2.834A6.718,6.718,0,0,1,122.2,17.176Zm13.816-9.211h2.531V17h-2.4l-.062-1.09a3.45,3.45,0,0,1-2.874,1.266,3.522,3.522,0,0,1-2.5-.813,3.014,3.014,0,0,1-.87-2.316V7.965h2.54V13.5a1.562,1.562,0,0,0,.453,1.239,1.718,1.718,0,0,0,1.173.4,2.038,2.038,0,0,0,1.437-.514,2.209,2.209,0,0,0,.567-1.674Zm12.56,6.583a8.453,8.453,0,0,0,.22,2.206V17h-2.364l-.2-.984a2.938,2.938,0,0,1-1.266.87,4.664,4.664,0,0,1-1.635.29,4.3,4.3,0,0,1-.844-.079,2.868,2.868,0,0,1-.76-.268,2.307,2.307,0,0,1-.628-.47,2.062,2.062,0,0,1-.422-.716,2.853,2.853,0,0,1-.158-.98,2.718,2.718,0,0,1,.167-.98,2.3,2.3,0,0,1,.439-.734,2.666,2.666,0,0,1,.712-.536,5.447,5.447,0,0,1,.9-.387,10.712,10.712,0,0,1,1.072-.281l1.485-.334a1.638,1.638,0,0,0,.672-.286.57.57,0,0,0,.2-.453.932.932,0,0,0-.444-.87,2.073,2.073,0,0,0-1.077-.264,1.549,1.549,0,0,0-1.767,1.38l-2.241-.4a3.034,3.034,0,0,1,1.31-2.061,5.2,5.2,0,0,1,2.839-.664q3.8,0,3.8,3.261Zm-4.456.914a2.036,2.036,0,0,0,1.564-.655,2.759,2.759,0,0,0,.606-1.938l-2.145.606a2.534,2.534,0,0,0-.9.369.758.758,0,0,0-.312.65.842.842,0,0,0,.334.716A1.382,1.382,0,0,0,144.124,15.462ZM151.041,17V3.5H153.6V17ZM157.51,6.611a1.421,1.421,0,0,1-1.037-.426,1.4,1.4,0,0,1-.431-1.033,1.382,1.382,0,0,1,.435-1.024A1.425,1.425,0,0,1,157.51,3.7a1.463,1.463,0,0,1,1.45,1.45,1.463,1.463,0,0,1-1.45,1.459ZM156.218,17V7.965h2.549V17Zm8.534,0a2.729,2.729,0,0,1-2.039-.734,2.854,2.854,0,0,1-.721-2.087V9.907h-1.775V7.965h.571a1.491,1.491,0,0,0,1.125-.378,1.946,1.946,0,0,0,.36-1.345v-1.2h2.285V7.965h1.863V9.907h-1.863v4q0,1.169,1.046,1.169h.817V17Zm11-2.452a8.453,8.453,0,0,0,.22,2.206V17h-2.364l-.2-.984a2.938,2.938,0,0,1-1.266.87,4.664,4.664,0,0,1-1.635.29,4.3,4.3,0,0,1-.844-.079,2.868,2.868,0,0,1-.76-.268,2.307,2.307,0,0,1-.628-.47,2.062,2.062,0,0,1-.422-.716,2.853,2.853,0,0,1-.158-.98,2.718,2.718,0,0,1,.167-.98,2.3,2.3,0,0,1,.439-.734,2.666,2.666,0,0,1,.712-.536,5.447,5.447,0,0,1,.9-.387,10.712,10.712,0,0,1,1.072-.281l1.485-.334a1.638,1.638,0,0,0,.672-.286.57.57,0,0,0,.2-.453.932.932,0,0,0-.444-.87,2.073,2.073,0,0,0-1.077-.264,1.549,1.549,0,0,0-1.767,1.38l-2.241-.4a3.034,3.034,0,0,1,1.31-2.061,5.2,5.2,0,0,1,2.839-.664q3.8,0,3.8,3.261Zm-4.456.914a2.036,2.036,0,0,0,1.564-.655,2.759,2.759,0,0,0,.606-1.938l-2.145.606a2.534,2.534,0,0,0-.9.369.758.758,0,0,0-.312.65.842.842,0,0,0,.334.716A1.382,1.382,0,0,0,171.3,15.462ZM181.46,17a2.729,2.729,0,0,1-2.039-.734,2.854,2.854,0,0,1-.721-2.087V9.907h-1.775V7.965h.571a1.491,1.491,0,0,0,1.125-.378,1.946,1.946,0,0,0,.36-1.345v-1.2h2.285V7.965h1.863V9.907h-1.863v4q0,1.169,1.046,1.169h.817V17Zm4.922-10.389a1.421,1.421,0,0,1-1.037-.426,1.4,1.4,0,0,1-.431-1.033,1.382,1.382,0,0,1,.435-1.024,1.425,1.425,0,0,1,1.033-.426,1.463,1.463,0,0,1,1.45,1.45,1.463,1.463,0,0,1-1.45,1.459ZM185.09,17V7.965h2.549V17Zm11.048-9.035h2.681L194.969,17h-2.2l-3.806-9.035h2.663l2.25,6.179Zm11.057,6.583a8.453,8.453,0,0,0,.22,2.206V17H205.05l-.2-.984a2.938,2.938,0,0,1-1.266.87,4.664,4.664,0,0,1-1.635.29,4.3,4.3,0,0,1-.844-.079,2.868,2.868,0,0,1-.76-.268,2.307,2.307,0,0,1-.628-.47,2.062,2.062,0,0,1-.422-.716,2.853,2.853,0,0,1-.158-.98,2.718,2.718,0,0,1,.167-.98,2.3,2.3,0,0,1,.439-.734,2.666,2.666,0,0,1,.712-.536,5.447,5.447,0,0,1,.9-.387,10.712,10.712,0,0,1,1.072-.281l1.485-.334a1.638,1.638,0,0,0,.672-.286.57.57,0,0,0,.2-.453.932.932,0,0,0-.444-.87,2.073,2.073,0,0,0-1.077-.264,1.549,1.549,0,0,0-1.767,1.38l-2.241-.4a3.034,3.034,0,0,1,1.31-2.061,5.2,5.2,0,0,1,2.839-.664q3.8,0,3.8,3.261Zm-4.456.914a2.036,2.036,0,0,0,1.564-.655,2.759,2.759,0,0,0,.606-1.938l-2.145.606a2.534,2.534,0,0,0-.9.369.758.758,0,0,0-.312.65.842.842,0,0,0,.334.716A1.382,1.382,0,0,0,202.738,15.462Zm10.1,1.714a5.049,5.049,0,0,1-2.637-.633,2.675,2.675,0,0,1-1.292-1.881l2.118-.6a1.7,1.7,0,0,0,1.811,1.345,1.87,1.87,0,0,0,.923-.207.719.719,0,0,0,.36-.7.739.739,0,0,0-.149-.466,1.183,1.183,0,0,0-.461-.334,5.749,5.749,0,0,0-.615-.237q-.3-.1-.8-.233t-.835-.259a5.593,5.593,0,0,1-.8-.338,3.393,3.393,0,0,1-.659-.466,1.878,1.878,0,0,1-.492-.708,2.552,2.552,0,0,1-.171-.967,2.308,2.308,0,0,1,.98-2.021,4.379,4.379,0,0,1,2.562-.686,4.489,4.489,0,0,1,2.364.58,2.625,2.625,0,0,1,1.213,1.811l-1.96.439a1.535,1.535,0,0,0-1.608-1.143,1.761,1.761,0,0,0-.888.2.649.649,0,0,0-.352.6.685.685,0,0,0,.053.272.539.539,0,0,0,.185.22,2.692,2.692,0,0,0,.255.167,1.923,1.923,0,0,0,.36.145q.237.075.4.114l.461.119.47.123q.483.132.848.264a4.967,4.967,0,0,1,.778.369,2.792,2.792,0,0,1,.681.532,2.372,2.372,0,0,1,.444.747,2.759,2.759,0,0,1,.176,1.006,2.718,2.718,0,0,1-.3,1.31,2.276,2.276,0,0,1-.831.883,4.043,4.043,0,0,1-1.173.475A6.087,6.087,0,0,1,212.837,17.176Z" transform="translate(498 1575.731)"/>
      <path id="Trazado_57647" data-name="Trazado 57647" d="M115.718,17.176a7.089,7.089,0,0,1-2.588-.466,6.087,6.087,0,0,1-2.061-1.3,5.864,5.864,0,0,1-1.354-2.065,7.2,7.2,0,0,1-.492-2.7,6.879,6.879,0,0,1,.844-3.45,5.744,5.744,0,0,1,2.316-2.281,6.935,6.935,0,0,1,3.335-.791,6.739,6.739,0,0,1,3.727,1.028,5.629,5.629,0,0,1,2.276,2.83l-2.461.9A3.479,3.479,0,0,0,117.9,7.165a3.891,3.891,0,0,0-2.18-.615,3.73,3.73,0,0,0-2.777,1.107,4.075,4.075,0,0,0-1.09,2.988,4.081,4.081,0,0,0,1.094,2.993,3.726,3.726,0,0,0,2.773,1.112,3.876,3.876,0,0,0,2.175-.62,3.5,3.5,0,0,0,1.367-1.718l2.461.9a5.652,5.652,0,0,1-2.276,2.834A6.718,6.718,0,0,1,115.718,17.176Zm13.816-9.211h2.531V17h-2.4l-.062-1.09a3.45,3.45,0,0,1-2.874,1.266,3.522,3.522,0,0,1-2.5-.813,3.014,3.014,0,0,1-.87-2.316V7.965h2.54V13.5a1.562,1.562,0,0,0,.453,1.239,1.718,1.718,0,0,0,1.173.4,2.038,2.038,0,0,0,1.437-.514,2.209,2.209,0,0,0,.567-1.674Zm12.56,6.583a8.453,8.453,0,0,0,.22,2.206V17h-2.364l-.2-.984a2.938,2.938,0,0,1-1.266.87,4.664,4.664,0,0,1-1.635.29A4.3,4.3,0,0,1,136,17.1a2.868,2.868,0,0,1-.76-.268,2.307,2.307,0,0,1-.628-.47,2.062,2.062,0,0,1-.422-.716,2.853,2.853,0,0,1-.158-.98,2.718,2.718,0,0,1,.167-.98,2.3,2.3,0,0,1,.439-.734,2.666,2.666,0,0,1,.712-.536,5.447,5.447,0,0,1,.9-.387,10.712,10.712,0,0,1,1.072-.281l1.485-.334a1.638,1.638,0,0,0,.672-.286.57.57,0,0,0,.2-.453.932.932,0,0,0-.444-.87,2.073,2.073,0,0,0-1.077-.264,1.549,1.549,0,0,0-1.767,1.38l-2.241-.4a3.034,3.034,0,0,1,1.31-2.061,5.2,5.2,0,0,1,2.839-.664q3.8,0,3.8,3.261Zm-4.456.914a2.036,2.036,0,0,0,1.564-.655,2.759,2.759,0,0,0,.606-1.938l-2.145.606a2.534,2.534,0,0,0-.9.369.758.758,0,0,0-.312.65.842.842,0,0,0,.334.716A1.382,1.382,0,0,0,137.638,15.462ZM149.89,7.789a3.522,3.522,0,0,1,2.5.813,3.014,3.014,0,0,1,.87,2.316V17h-2.54V11.463a1.574,1.574,0,0,0-.453-1.248,1.705,1.705,0,0,0-1.165-.4,2.379,2.379,0,0,0-.756.114,1.942,1.942,0,0,0-.633.356,1.573,1.573,0,0,0-.453.681,3.15,3.15,0,0,0-.171,1.046V17h-2.531V7.965h2.531v1A3.481,3.481,0,0,1,149.89,7.789ZM159.074,17a2.729,2.729,0,0,1-2.039-.734,2.854,2.854,0,0,1-.721-2.087V9.907h-1.775V7.965h.571a1.491,1.491,0,0,0,1.125-.378,1.946,1.946,0,0,0,.36-1.345v-1.2h2.285V7.965h1.863V9.907h-1.863v4q0,1.169,1.046,1.169h.817V17ZM164,6.611a1.421,1.421,0,0,1-1.037-.426,1.4,1.4,0,0,1-.431-1.033,1.382,1.382,0,0,1,.435-1.024A1.425,1.425,0,0,1,164,3.7a1.463,1.463,0,0,1,1.45,1.45A1.463,1.463,0,0,1,164,6.611ZM162.7,17V7.965h2.549V17Zm8.534,0a2.729,2.729,0,0,1-2.039-.734,2.854,2.854,0,0,1-.721-2.087V9.907H166.7V7.965h.571a1.491,1.491,0,0,0,1.125-.378,1.946,1.946,0,0,0,.36-1.345v-1.2h2.285V7.965h1.863V9.907h-1.863v4q0,1.169,1.046,1.169h.817V17Zm11-2.452a8.453,8.453,0,0,0,.22,2.206V17H180.1l-.2-.984a2.938,2.938,0,0,1-1.266.87,4.664,4.664,0,0,1-1.635.29,4.3,4.3,0,0,1-.844-.079,2.868,2.868,0,0,1-.76-.268,2.307,2.307,0,0,1-.628-.47,2.062,2.062,0,0,1-.422-.716,2.853,2.853,0,0,1-.158-.98,2.718,2.718,0,0,1,.167-.98,2.3,2.3,0,0,1,.439-.734,2.666,2.666,0,0,1,.712-.536,5.447,5.447,0,0,1,.9-.387,10.712,10.712,0,0,1,1.072-.281l1.485-.334a1.638,1.638,0,0,0,.672-.286.57.57,0,0,0,.2-.453.932.932,0,0,0-.444-.87,2.073,2.073,0,0,0-1.077-.264,1.549,1.549,0,0,0-1.767,1.38l-2.241-.4a3.034,3.034,0,0,1,1.31-2.061,5.2,5.2,0,0,1,2.839-.664q3.8,0,3.8,3.261Zm-4.456.914a2.036,2.036,0,0,0,1.564-.655,2.759,2.759,0,0,0,.606-1.938l-2.145.606a2.534,2.534,0,0,0-.9.369.758.758,0,0,0-.312.65.842.842,0,0,0,.334.716A1.382,1.382,0,0,0,177.786,15.462ZM187.946,17a2.729,2.729,0,0,1-2.039-.734,2.854,2.854,0,0,1-.721-2.087V9.907h-1.775V7.965h.571a1.491,1.491,0,0,0,1.125-.378,1.946,1.946,0,0,0,.36-1.345v-1.2h2.285V7.965h1.863V9.907h-1.863v4q0,1.169,1.046,1.169h.817V17Zm4.922-10.389a1.421,1.421,0,0,1-1.037-.426,1.4,1.4,0,0,1-.431-1.033,1.382,1.382,0,0,1,.435-1.024,1.425,1.425,0,0,1,1.033-.426,1.463,1.463,0,0,1,1.45,1.45,1.463,1.463,0,0,1-1.45,1.459ZM191.576,17V7.965h2.549V17Zm11.048-9.035H205.3L201.455,17h-2.2l-3.806-9.035h2.663l2.25,6.179Zm11.057,6.583a8.453,8.453,0,0,0,.22,2.206V17h-2.364l-.2-.984a2.938,2.938,0,0,1-1.266.87,4.664,4.664,0,0,1-1.635.29,4.3,4.3,0,0,1-.844-.079,2.868,2.868,0,0,1-.76-.268,2.307,2.307,0,0,1-.628-.47,2.062,2.062,0,0,1-.422-.716,2.853,2.853,0,0,1-.158-.98,2.718,2.718,0,0,1,.167-.98,2.3,2.3,0,0,1,.439-.734,2.666,2.666,0,0,1,.712-.536,5.447,5.447,0,0,1,.9-.387,10.712,10.712,0,0,1,1.072-.281l1.485-.334a1.638,1.638,0,0,0,.672-.286.57.57,0,0,0,.2-.453.932.932,0,0,0-.444-.87,2.073,2.073,0,0,0-1.077-.264,1.549,1.549,0,0,0-1.767,1.38l-2.241-.4a3.034,3.034,0,0,1,1.31-2.061,5.2,5.2,0,0,1,2.839-.664q3.8,0,3.8,3.261Zm-4.456.914a2.036,2.036,0,0,0,1.564-.655,2.759,2.759,0,0,0,.606-1.938l-2.145.606a2.534,2.534,0,0,0-.9.369.758.758,0,0,0-.312.65.842.842,0,0,0,.334.716A1.382,1.382,0,0,0,209.225,15.462Zm10.1,1.714a5.049,5.049,0,0,1-2.637-.633,2.675,2.675,0,0,1-1.292-1.881l2.118-.6a1.7,1.7,0,0,0,1.811,1.345,1.87,1.87,0,0,0,.923-.207.719.719,0,0,0,.36-.7.739.739,0,0,0-.149-.466A1.183,1.183,0,0,0,220,13.7a5.749,5.749,0,0,0-.615-.237q-.3-.1-.8-.233t-.835-.259a5.593,5.593,0,0,1-.8-.338,3.393,3.393,0,0,1-.659-.466,1.878,1.878,0,0,1-.492-.708,2.552,2.552,0,0,1-.171-.967,2.308,2.308,0,0,1,.98-2.021,4.379,4.379,0,0,1,2.562-.686,4.489,4.489,0,0,1,2.364.58,2.625,2.625,0,0,1,1.213,1.811l-1.96.439a1.535,1.535,0,0,0-1.608-1.143,1.761,1.761,0,0,0-.888.2.649.649,0,0,0-.352.6.685.685,0,0,0,.053.272.539.539,0,0,0,.185.22,2.692,2.692,0,0,0,.255.167,1.923,1.923,0,0,0,.36.145q.237.075.4.114l.461.119.47.123q.483.132.848.264a4.967,4.967,0,0,1,.778.369,2.792,2.792,0,0,1,.681.532,2.372,2.372,0,0,1,.444.747,2.759,2.759,0,0,1,.176,1.006,2.718,2.718,0,0,1-.3,1.31,2.276,2.276,0,0,1-.831.883,4.043,4.043,0,0,1-1.173.475A6.087,6.087,0,0,1,219.323,17.176Z" transform="translate(1050 1575.731)"/>
      <path id="Trazado_57652" data-name="Trazado 57652" d="M10.257,4.625h1.564V17H10.16L3.489,6.989V17H1.942V4.625H3.586l6.671,9.967Zm8.569,12.542a4.554,4.554,0,0,1-2.215-.536,3.9,3.9,0,0,1-1.56-1.569,4.819,4.819,0,0,1-.576-2.386A4.4,4.4,0,0,1,15.7,9.419a4.232,4.232,0,0,1,3.125-1.226,4.228,4.228,0,0,1,3.129,1.226,4.41,4.41,0,0,1,1.222,3.256,4.413,4.413,0,0,1-1.226,3.265A4.232,4.232,0,0,1,18.826,17.167ZM18.817,15.9a2.654,2.654,0,0,0,2.043-.888,3.326,3.326,0,0,0,.813-2.338,3.314,3.314,0,0,0-.813-2.329,2.654,2.654,0,0,0-2.043-.888,2.617,2.617,0,0,0-2.026.888,3.336,3.336,0,0,0-.8,2.329,3.348,3.348,0,0,0,.8,2.338A2.617,2.617,0,0,0,18.817,15.9ZM34.392,8.193a2.785,2.785,0,0,1,2.013.734,2.722,2.722,0,0,1,.765,2.061V17H35.648V11.384a1.952,1.952,0,0,0-.475-1.424,1.616,1.616,0,0,0-1.2-.483,1.706,1.706,0,0,0-1.318.545,2.343,2.343,0,0,0-.5,1.635V17H30.6V11.445a2.042,2.042,0,0,0-.479-1.472,1.629,1.629,0,0,0-1.226-.5,1.69,1.69,0,0,0-1.314.558,2.424,2.424,0,0,0-.505,1.674V17H25.559V8.36h1.521V9.477a2.625,2.625,0,0,1,.989-.949,2.82,2.82,0,0,1,1.375-.334,2.935,2.935,0,0,1,1.477.365,2.271,2.271,0,0,1,.958,1.05,2.689,2.689,0,0,1,1.037-1.05A2.966,2.966,0,0,1,34.392,8.193Zm6.5-1.863A1.035,1.035,0,0,1,39.858,5.3a.975.975,0,0,1,.3-.721,1,1,0,0,1,.725-.3.987.987,0,0,1,.716.3.975.975,0,0,1,.3.721.989.989,0,0,1-.3.725A.979.979,0,0,1,40.887,6.33ZM40.113,17V8.36h1.529V17Zm8.7-8.807a3.005,3.005,0,0,1,2.175.782,2.918,2.918,0,0,1,.813,2.206V17H50.282V11.524a2.043,2.043,0,0,0-.527-1.547,1.885,1.885,0,0,0-1.354-.5,2.09,2.09,0,0,0-1.538.593,2.407,2.407,0,0,0-.606,1.762V17H44.736V8.36h1.521V9.468A2.885,2.885,0,0,1,48.814,8.193Zm7.919,8.974a2.94,2.94,0,0,1-1.894-.593A2.13,2.13,0,0,1,54.1,14.8a2.517,2.517,0,0,1,.237-1.129,1.991,1.991,0,0,1,.7-.787,4.218,4.218,0,0,1,1.015-.488,9.384,9.384,0,0,1,1.314-.312l1.4-.229q.765-.141.765-.8a1.51,1.51,0,0,0-.541-1.288,2.2,2.2,0,0,0-1.367-.409,2.243,2.243,0,0,0-1.354.4,1.655,1.655,0,0,0-.642,1.213l-1.371-.29a2.639,2.639,0,0,1,1.081-1.85,4.039,4.039,0,0,1,2.355-.62,4.777,4.777,0,0,1,1.252.154,3.4,3.4,0,0,1,1.046.483,2.168,2.168,0,0,1,.747.932A3.466,3.466,0,0,1,61,11.2v3.568a1.46,1.46,0,0,0,.2.9.854.854,0,0,0,.681.233h.141V17h-.756a1.442,1.442,0,0,1-1.635-1.169h-.07A3.3,3.3,0,0,1,56.733,17.167Zm.352-1.23a2.305,2.305,0,0,0,1.854-.835,3.438,3.438,0,0,0,.7-2.285l-2.285.439a3.076,3.076,0,0,0-1.34.479,1.114,1.114,0,0,0-.435.945,1.1,1.1,0,0,0,.417.949A1.785,1.785,0,0,0,57.085,15.937ZM64.169,17V3.5h1.538V17Zm12.19-4.491-.018.413h-6.75a3.053,3.053,0,0,0,.826,2.21,2.713,2.713,0,0,0,1.969.769,2.59,2.59,0,0,0,1.433-.413,2.68,2.68,0,0,0,.984-1.143l1.371.29A3.9,3.9,0,0,1,74.7,16.49a4.028,4.028,0,0,1-2.294.677,4.174,4.174,0,0,1-3.111-1.2,4.479,4.479,0,0,1-1.187-3.287A4.458,4.458,0,0,1,69.3,9.4a4.122,4.122,0,0,1,3.063-1.2,3.9,3.9,0,0,1,2.9,1.107A4.376,4.376,0,0,1,76.359,12.509Zm-4-3.146a2.694,2.694,0,0,0-1.8.611,2.8,2.8,0,0,0-.91,1.78H74.83a2.567,2.567,0,0,0-.756-1.78A2.441,2.441,0,0,0,72.36,9.362Zm9.114,7.8a4.1,4.1,0,0,1-2.329-.624,2.581,2.581,0,0,1-1.134-1.775l1.327-.378a1.851,1.851,0,0,0,.708,1.2,2.3,2.3,0,0,0,1.419.426A2.832,2.832,0,0,0,82.3,15.9a1.331,1.331,0,0,0,.637-.426,1.189,1.189,0,0,0,.185-1.143,1.526,1.526,0,0,0-.141-.286.87.87,0,0,0-.246-.237,3.245,3.245,0,0,0-.3-.185,3.067,3.067,0,0,0-.391-.163q-.259-.092-.417-.141t-.483-.141q-.325-.092-.5-.145a9.372,9.372,0,0,1-.9-.316,3.932,3.932,0,0,1-.729-.417,1.679,1.679,0,0,1-.567-.681,2.3,2.3,0,0,1-.189-.967,2.234,2.234,0,0,1,.422-1.38,2.374,2.374,0,0,1,1.094-.813,4.374,4.374,0,0,1,1.534-.25,3.754,3.754,0,0,1,2.1.563,2.4,2.4,0,0,1,1.05,1.688l-1.248.316a1.655,1.655,0,0,0-.659-1.094,2.1,2.1,0,0,0-1.239-.365,2.139,2.139,0,0,0-1.16.3,1.019,1.019,0,0,0-.483.927.923.923,0,0,0,.127.479,1.521,1.521,0,0,0,.259.338,1.594,1.594,0,0,0,.475.259q.343.136.51.185t.633.163q.088.026.132.035.51.132.831.233a5.105,5.105,0,0,1,.747.316,2.484,2.484,0,0,1,.672.47,2.178,2.178,0,0,1,.422.668,2.358,2.358,0,0,1,.176.932,2.516,2.516,0,0,1-.259,1.165,2.028,2.028,0,0,1-.708.8,3.422,3.422,0,0,1-1.006.435A4.8,4.8,0,0,1,81.475,17.167Z" transform="translate(650.5 1687.002)" fill="#00223d"/>
      <path id="Trazado_57653" data-name="Trazado 57653" d="M7.242,17.167a6.574,6.574,0,0,1-2.435-.444,5.879,5.879,0,0,1-1.956-1.248,5.567,5.567,0,0,1-1.3-2.008,7.263,7.263,0,0,1-.47-2.663,7.144,7.144,0,0,1,.475-2.65A5.556,5.556,0,0,1,4.808,4.9a6.633,6.633,0,0,1,2.435-.439A6.526,6.526,0,0,1,9.659,4.9,5.831,5.831,0,0,1,11.61,6.15a5.652,5.652,0,0,1,1.3,2,7.144,7.144,0,0,1,.475,2.65,7.213,7.213,0,0,1-.475,2.659,5.638,5.638,0,0,1-1.3,2.013,5.831,5.831,0,0,1-1.951,1.248A6.526,6.526,0,0,1,7.242,17.167Zm0-1.485a4.422,4.422,0,0,0,3.274-1.305,4.847,4.847,0,0,0,1.3-3.573,5.674,5.674,0,0,0-.356-2.057,4.236,4.236,0,0,0-.976-1.529,4.28,4.28,0,0,0-1.45-.932,4.862,4.862,0,0,0-1.789-.325,4.921,4.921,0,0,0-1.8.325,4.317,4.317,0,0,0-1.459.932A4.206,4.206,0,0,0,3,8.747,5.674,5.674,0,0,0,2.646,10.8,5.771,5.771,0,0,0,3,12.878a4.194,4.194,0,0,0,.98,1.538,4.374,4.374,0,0,0,1.459.936A4.863,4.863,0,0,0,7.242,15.682ZM17.5,9.881a2.612,2.612,0,0,1,1.072-1.16,3.229,3.229,0,0,1,1.661-.457V9.7a2.846,2.846,0,0,0-2.008.642,2.68,2.68,0,0,0-.69,2.048V17H16.014V8.36H17.5ZM28.292,3.5h1.521V17H28.345l-.035-1.679a3.179,3.179,0,0,1-1.23,1.362,3.429,3.429,0,0,1-1.828.5A3.926,3.926,0,0,1,22.4,15.967a4.16,4.16,0,0,1-.87-1.428,5.225,5.225,0,0,1-.321-1.854,4.543,4.543,0,0,1,1.173-3.243,3.788,3.788,0,0,1,2.87-1.248,3.443,3.443,0,0,1,1.806.488A3.2,3.2,0,0,1,28.292,10ZM25.567,15.866a2.587,2.587,0,0,0,2.008-.91,3.283,3.283,0,0,0,.813-2.272,3.277,3.277,0,0,0-.817-2.268,2.586,2.586,0,0,0-2-.914,2.644,2.644,0,0,0-2.021.883,3.25,3.25,0,0,0-.817,2.3,3.25,3.25,0,0,0,.817,2.3A2.644,2.644,0,0,0,25.567,15.866ZM33.68,6.33A1.035,1.035,0,0,1,32.651,5.3a.975.975,0,0,1,.3-.721,1,1,0,0,1,.725-.3.987.987,0,0,1,.716.3.975.975,0,0,1,.3.721.989.989,0,0,1-.3.725A.979.979,0,0,1,33.68,6.33ZM32.906,17V8.36h1.529V17Zm8.7-8.807a3.005,3.005,0,0,1,2.175.782,2.918,2.918,0,0,1,.813,2.206V17H43.075V11.524a2.043,2.043,0,0,0-.527-1.547,1.885,1.885,0,0,0-1.354-.5,2.09,2.09,0,0,0-1.538.593,2.407,2.407,0,0,0-.606,1.762V17H37.529V8.36H39.05V9.468A2.885,2.885,0,0,1,41.607,8.193Zm7.919,8.974a2.94,2.94,0,0,1-1.894-.593A2.13,2.13,0,0,1,46.89,14.8a2.517,2.517,0,0,1,.237-1.129,1.991,1.991,0,0,1,.7-.787,4.218,4.218,0,0,1,1.015-.488,9.384,9.384,0,0,1,1.314-.312l1.4-.229q.765-.141.765-.8a1.51,1.51,0,0,0-.541-1.288,2.2,2.2,0,0,0-1.367-.409,2.243,2.243,0,0,0-1.354.4,1.655,1.655,0,0,0-.642,1.213l-1.371-.29a2.639,2.639,0,0,1,1.081-1.85,4.039,4.039,0,0,1,2.355-.62,4.777,4.777,0,0,1,1.252.154,3.4,3.4,0,0,1,1.046.483,2.168,2.168,0,0,1,.747.932A3.466,3.466,0,0,1,53.8,11.2v3.568a1.46,1.46,0,0,0,.2.9.854.854,0,0,0,.681.233h.141V17h-.756a1.442,1.442,0,0,1-1.635-1.169h-.07A3.3,3.3,0,0,1,49.526,17.167Zm.352-1.23a2.305,2.305,0,0,0,1.854-.835,3.438,3.438,0,0,0,.7-2.285l-2.285.439a3.076,3.076,0,0,0-1.34.479,1.114,1.114,0,0,0-.435.945,1.1,1.1,0,0,0,.417.949A1.785,1.785,0,0,0,49.878,15.937ZM56.962,17V3.5H58.5V17Zm12.19-4.491-.018.413h-6.75a3.053,3.053,0,0,0,.826,2.21,2.713,2.713,0,0,0,1.969.769,2.59,2.59,0,0,0,1.433-.413,2.68,2.68,0,0,0,.984-1.143l1.371.29a3.9,3.9,0,0,1-1.477,1.854,4.028,4.028,0,0,1-2.294.677,4.174,4.174,0,0,1-3.111-1.2A4.479,4.479,0,0,1,60.9,12.676,4.458,4.458,0,0,1,62.09,9.4a4.122,4.122,0,0,1,3.063-1.2,3.9,3.9,0,0,1,2.9,1.107A4.376,4.376,0,0,1,69.152,12.509Zm-4-3.146a2.694,2.694,0,0,0-1.8.611,2.8,2.8,0,0,0-.91,1.78h5.177a2.567,2.567,0,0,0-.756-1.78A2.441,2.441,0,0,0,65.153,9.362Zm9.114,7.8a4.1,4.1,0,0,1-2.329-.624A2.581,2.581,0,0,1,70.8,14.768l1.327-.378a1.851,1.851,0,0,0,.708,1.2,2.3,2.3,0,0,0,1.419.426,2.832,2.832,0,0,0,.831-.114,1.331,1.331,0,0,0,.637-.426,1.189,1.189,0,0,0,.185-1.143,1.526,1.526,0,0,0-.141-.286.87.87,0,0,0-.246-.237,3.245,3.245,0,0,0-.3-.185,3.067,3.067,0,0,0-.391-.163q-.259-.092-.417-.141t-.483-.141q-.325-.092-.5-.145a9.372,9.372,0,0,1-.9-.316,3.932,3.932,0,0,1-.729-.417,1.679,1.679,0,0,1-.567-.681,2.3,2.3,0,0,1-.189-.967,2.234,2.234,0,0,1,.422-1.38,2.374,2.374,0,0,1,1.094-.813,4.374,4.374,0,0,1,1.534-.25,3.754,3.754,0,0,1,2.1.563,2.4,2.4,0,0,1,1.05,1.688l-1.248.316a1.655,1.655,0,0,0-.659-1.094,2.1,2.1,0,0,0-1.239-.365,2.139,2.139,0,0,0-1.16.3,1.019,1.019,0,0,0-.483.927.923.923,0,0,0,.127.479,1.521,1.521,0,0,0,.259.338,1.594,1.594,0,0,0,.475.259q.343.136.51.185t.633.163q.088.026.132.035.51.132.831.233a5.105,5.105,0,0,1,.747.316,2.484,2.484,0,0,1,.672.47,2.178,2.178,0,0,1,.422.668,2.358,2.358,0,0,1,.176.932,2.516,2.516,0,0,1-.259,1.165,2.028,2.028,0,0,1-.708.8,3.422,3.422,0,0,1-1.006.435A4.8,4.8,0,0,1,74.268,17.167Z" transform="translate(650.5 1772.002)" fill="#00223d"/>
      <path id="Trazado_57648" data-name="Trazado 57648" d="M1.942,17V4.625h3.99a5.917,5.917,0,0,1,3.151.8A4.879,4.879,0,0,1,11.017,7.6a7.642,7.642,0,0,1,.628,3.2,8.1,8.1,0,0,1-.365,2.5,5.664,5.664,0,0,1-1.068,1.956,4.685,4.685,0,0,1-1.8,1.283A6.391,6.391,0,0,1,5.933,17Zm1.573-1.433H5.88A3.769,3.769,0,0,0,8.969,14.3a5.35,5.35,0,0,0,1.042-3.5,5.305,5.305,0,0,0-1.046-3.48A3.771,3.771,0,0,0,5.88,6.058H3.516ZM15.082,6.33A1.035,1.035,0,0,1,14.054,5.3a.975.975,0,0,1,.3-.721,1,1,0,0,1,.725-.3.987.987,0,0,1,.716.3.975.975,0,0,1,.3.721.989.989,0,0,1-.3.725A.979.979,0,0,1,15.082,6.33ZM14.309,17V8.36h1.529V17Zm7.356.167a4.1,4.1,0,0,1-2.329-.624A2.581,2.581,0,0,1,18.2,14.768l1.327-.378a1.851,1.851,0,0,0,.708,1.2,2.3,2.3,0,0,0,1.419.426,2.832,2.832,0,0,0,.831-.114,1.331,1.331,0,0,0,.637-.426,1.189,1.189,0,0,0,.185-1.143,1.526,1.526,0,0,0-.141-.286.87.87,0,0,0-.246-.237,3.245,3.245,0,0,0-.3-.185,3.067,3.067,0,0,0-.391-.163q-.259-.092-.417-.141t-.483-.141q-.325-.092-.5-.145a9.372,9.372,0,0,1-.9-.316A3.932,3.932,0,0,1,19.2,12.3a1.679,1.679,0,0,1-.567-.681,2.3,2.3,0,0,1-.189-.967,2.234,2.234,0,0,1,.422-1.38,2.374,2.374,0,0,1,1.094-.813,4.374,4.374,0,0,1,1.534-.25,3.754,3.754,0,0,1,2.1.563,2.4,2.4,0,0,1,1.05,1.688l-1.248.316a1.655,1.655,0,0,0-.659-1.094,2.1,2.1,0,0,0-1.239-.365,2.139,2.139,0,0,0-1.16.3,1.019,1.019,0,0,0-.483.927.923.923,0,0,0,.127.479,1.521,1.521,0,0,0,.259.338,1.594,1.594,0,0,0,.475.259q.343.136.51.185t.633.163q.088.026.132.035.51.132.831.233a5.105,5.105,0,0,1,.747.316,2.484,2.484,0,0,1,.672.47,2.178,2.178,0,0,1,.422.668,2.358,2.358,0,0,1,.176.932,2.516,2.516,0,0,1-.259,1.165,2.028,2.028,0,0,1-.708.8,3.422,3.422,0,0,1-1.006.435A4.8,4.8,0,0,1,21.665,17.167Zm9.158-.009a4.161,4.161,0,0,1-3.094-1.239,4.421,4.421,0,0,1-1.222-3.243,4.43,4.43,0,0,1,1.217-3.243,4.5,4.5,0,0,1,5.6-.483,3.815,3.815,0,0,1,1.455,2.1l-1.424.229a2.63,2.63,0,0,0-.976-1.345,2.656,2.656,0,0,0-1.564-.475,2.554,2.554,0,0,0-2,.888,3.382,3.382,0,0,0-.787,2.329A3.365,3.365,0,0,0,28.815,15a2.56,2.56,0,0,0,2,.883,2.656,2.656,0,0,0,1.564-.475,2.63,2.63,0,0,0,.976-1.345l1.424.237a3.819,3.819,0,0,1-1.463,2.1A4.185,4.185,0,0,1,30.823,17.158ZM38.5,9.881a2.612,2.612,0,0,1,1.072-1.16,3.229,3.229,0,0,1,1.661-.457V9.7a2.846,2.846,0,0,0-2.008.642,2.68,2.68,0,0,0-.69,2.048V17H37.02V8.36H38.5Zm11.971,2.628-.018.413h-6.75a3.053,3.053,0,0,0,.826,2.21A2.713,2.713,0,0,0,46.5,15.9a2.59,2.59,0,0,0,1.433-.413,2.68,2.68,0,0,0,.984-1.143l1.371.29a3.9,3.9,0,0,1-1.477,1.854,4.028,4.028,0,0,1-2.294.677,4.174,4.174,0,0,1-3.111-1.2,4.479,4.479,0,0,1-1.187-3.287A4.458,4.458,0,0,1,43.414,9.4a4.122,4.122,0,0,1,3.063-1.2,3.9,3.9,0,0,1,2.9,1.107A4.376,4.376,0,0,1,50.476,12.509Zm-4-3.146a2.694,2.694,0,0,0-1.8.611,2.8,2.8,0,0,0-.91,1.78h5.177a2.567,2.567,0,0,0-.756-1.78A2.441,2.441,0,0,0,46.477,9.362ZM55.617,17a2.271,2.271,0,0,1-1.687-.62,2.344,2.344,0,0,1-.615-1.727V9.573H51.548V8.36h.65a1.249,1.249,0,0,0,.954-.3,1.492,1.492,0,0,0,.277-1.015V5.478h1.415V8.36H56.83V9.573H54.844V14.5a1.31,1.31,0,0,0,.33.954,1.154,1.154,0,0,0,.866.338h.791V17Zm5.3.167a2.94,2.94,0,0,1-1.894-.593A2.13,2.13,0,0,1,58.28,14.8a2.517,2.517,0,0,1,.237-1.129,1.991,1.991,0,0,1,.7-.787,4.218,4.218,0,0,1,1.015-.488,9.384,9.384,0,0,1,1.314-.312l1.4-.229q.765-.141.765-.8a1.51,1.51,0,0,0-.541-1.288A2.2,2.2,0,0,0,61.8,9.362a2.243,2.243,0,0,0-1.354.4,1.655,1.655,0,0,0-.642,1.213l-1.371-.29a2.639,2.639,0,0,1,1.081-1.85,4.039,4.039,0,0,1,2.355-.62,4.777,4.777,0,0,1,1.252.154,3.4,3.4,0,0,1,1.046.483,2.168,2.168,0,0,1,.747.932,3.466,3.466,0,0,1,.268,1.419v3.568a1.46,1.46,0,0,0,.2.9.854.854,0,0,0,.681.233h.141V17h-.756a1.442,1.442,0,0,1-1.635-1.169h-.07A3.3,3.3,0,0,1,60.917,17.167Zm.352-1.23a2.305,2.305,0,0,0,1.854-.835,3.438,3.438,0,0,0,.7-2.285l-2.285.439a3.076,3.076,0,0,0-1.34.479,1.114,1.114,0,0,0-.435.945,1.1,1.1,0,0,0,.417.949A1.785,1.785,0,0,0,61.269,15.937Zm9.817,1.23a4.1,4.1,0,0,1-2.329-.624,2.581,2.581,0,0,1-1.134-1.775l1.327-.378a1.851,1.851,0,0,0,.708,1.2,2.3,2.3,0,0,0,1.419.426,2.832,2.832,0,0,0,.831-.114,1.331,1.331,0,0,0,.637-.426,1.189,1.189,0,0,0,.185-1.143,1.526,1.526,0,0,0-.141-.286.87.87,0,0,0-.246-.237,3.245,3.245,0,0,0-.3-.185,3.067,3.067,0,0,0-.391-.163q-.259-.092-.417-.141t-.483-.141q-.325-.092-.5-.145a9.372,9.372,0,0,1-.9-.316,3.932,3.932,0,0,1-.729-.417,1.679,1.679,0,0,1-.567-.681,2.3,2.3,0,0,1-.189-.967,2.234,2.234,0,0,1,.422-1.38,2.374,2.374,0,0,1,1.094-.813,4.374,4.374,0,0,1,1.534-.25,3.754,3.754,0,0,1,2.1.563,2.4,2.4,0,0,1,1.05,1.688l-1.248.316a1.655,1.655,0,0,0-.659-1.094,2.1,2.1,0,0,0-1.239-.365,2.139,2.139,0,0,0-1.16.3,1.019,1.019,0,0,0-.483.927.923.923,0,0,0,.127.479,1.521,1.521,0,0,0,.259.338,1.594,1.594,0,0,0,.475.259q.343.136.51.185t.633.163q.088.026.132.035.51.132.831.233a5.105,5.105,0,0,1,.747.316,2.484,2.484,0,0,1,.672.47,2.178,2.178,0,0,1,.422.668,2.358,2.358,0,0,1,.176.932,2.516,2.516,0,0,1-.259,1.165,2.028,2.028,0,0,1-.708.8,3.422,3.422,0,0,1-1.006.435A4.8,4.8,0,0,1,71.086,17.167Z" transform="translate(1198.5 1687.002)" fill="#00223d"/>
      <path id="Trazado_57650" data-name="Trazado 57650" d="M7.242,17.167a6.574,6.574,0,0,1-2.435-.444,5.879,5.879,0,0,1-1.956-1.248,5.567,5.567,0,0,1-1.3-2.008,7.263,7.263,0,0,1-.47-2.663,7.144,7.144,0,0,1,.475-2.65A5.556,5.556,0,0,1,4.808,4.9a6.633,6.633,0,0,1,2.435-.439,6.287,6.287,0,0,1,3.292.87,5.421,5.421,0,0,1,2.175,2.417l-1.45.6A4.075,4.075,0,0,0,9.637,6.581a4.654,4.654,0,0,0-2.4-.62,4.921,4.921,0,0,0-1.8.325,4.317,4.317,0,0,0-1.459.932A4.206,4.206,0,0,0,3,8.747,5.674,5.674,0,0,0,2.646,10.8,5.71,5.71,0,0,0,3,12.865a4.2,4.2,0,0,0,.98,1.534,4.374,4.374,0,0,0,1.459.936,4.863,4.863,0,0,0,1.8.33,4.654,4.654,0,0,0,2.4-.62,4.085,4.085,0,0,0,1.622-1.753l1.45.589A5.394,5.394,0,0,1,10.538,16.3,6.305,6.305,0,0,1,7.242,17.167Zm11.408,0a4.554,4.554,0,0,1-2.215-.536,3.9,3.9,0,0,1-1.56-1.569,4.819,4.819,0,0,1-.576-2.386,4.4,4.4,0,0,1,1.226-3.256A4.232,4.232,0,0,1,18.65,8.193a4.228,4.228,0,0,1,3.129,1.226A4.41,4.41,0,0,1,23,12.676a4.413,4.413,0,0,1-1.226,3.265A4.232,4.232,0,0,1,18.65,17.167ZM18.642,15.9a2.654,2.654,0,0,0,2.043-.888,3.326,3.326,0,0,0,.813-2.338,3.314,3.314,0,0,0-.813-2.329,2.654,2.654,0,0,0-2.043-.888,2.617,2.617,0,0,0-2.026.888,3.336,3.336,0,0,0-.8,2.329,3.348,3.348,0,0,0,.8,2.338A2.617,2.617,0,0,0,18.642,15.9ZM29.461,8.193a3.005,3.005,0,0,1,2.175.782,2.918,2.918,0,0,1,.813,2.206V17H30.929V11.524A2.043,2.043,0,0,0,30.4,9.978a1.885,1.885,0,0,0-1.354-.5,2.09,2.09,0,0,0-1.538.593,2.407,2.407,0,0,0-.606,1.762V17H25.383V8.36H26.9V9.468A2.885,2.885,0,0,1,29.461,8.193ZM38.145,17a2.271,2.271,0,0,1-1.687-.62,2.344,2.344,0,0,1-.615-1.727V9.573H34.075V8.36h.65a1.249,1.249,0,0,0,.954-.3,1.492,1.492,0,0,0,.277-1.015V5.478h1.415V8.36h1.986V9.573H37.371V14.5a1.31,1.31,0,0,0,.33.954,1.154,1.154,0,0,0,.866.338h.791V17ZM42.328,6.33A1.035,1.035,0,0,1,41.3,5.3a.975.975,0,0,1,.3-.721,1,1,0,0,1,.725-.3.987.987,0,0,1,.716.3.975.975,0,0,1,.3.721.989.989,0,0,1-.3.725A.979.979,0,0,1,42.328,6.33ZM41.555,17V8.36h1.529V17ZM52.436,8.36h1.477v8.2A4.706,4.706,0,0,1,52.8,19.927,4.058,4.058,0,0,1,49.7,21.1a4.084,4.084,0,0,1-4.192-2.646l1.257-.615a2.856,2.856,0,0,0,2.892,2A2.48,2.48,0,0,0,51.684,19a3.591,3.591,0,0,0,.7-2.355v-1.6a3.045,3.045,0,0,1-1.23,1.244,3.58,3.58,0,0,1-1.8.47,3.7,3.7,0,0,1-2.795-1.217A4.293,4.293,0,0,1,45.4,12.465,4.253,4.253,0,0,1,46.56,9.4a3.74,3.74,0,0,1,2.808-1.208,3.49,3.49,0,0,1,1.811.483A3.112,3.112,0,0,1,52.4,9.951Zm-2.742,7.1a2.614,2.614,0,0,0,1.991-.888,3.136,3.136,0,0,0,0-4.228A2.708,2.708,0,0,0,47.7,10.32a3,3,0,0,0-.813,2.145,2.978,2.978,0,0,0,.822,2.131A2.634,2.634,0,0,0,49.693,15.462Zm12.691-7.1h1.521V17H62.446l-.035-1.143a2.7,2.7,0,0,1-1.072.971,3.3,3.3,0,0,1-1.512.338,3.005,3.005,0,0,1-2.175-.782,2.918,2.918,0,0,1-.813-2.206V8.36h1.521v5.476a2.05,2.05,0,0,0,.532,1.547,1.882,1.882,0,0,0,1.358.51,2.067,2.067,0,0,0,1.534-.6,2.434,2.434,0,0,0,.6-1.767Zm6.609,8.807a2.94,2.94,0,0,1-1.894-.593,2.13,2.13,0,0,1-.743-1.771,2.517,2.517,0,0,1,.237-1.129,1.991,1.991,0,0,1,.7-.787,4.218,4.218,0,0,1,1.015-.488,9.384,9.384,0,0,1,1.314-.312l1.4-.229q.765-.141.765-.8a1.51,1.51,0,0,0-.541-1.288,2.2,2.2,0,0,0-1.367-.409,2.243,2.243,0,0,0-1.354.4,1.655,1.655,0,0,0-.642,1.213l-1.371-.29A2.639,2.639,0,0,1,67.6,8.831a4.039,4.039,0,0,1,2.355-.62,4.777,4.777,0,0,1,1.252.154,3.4,3.4,0,0,1,1.046.483A2.168,2.168,0,0,1,73,9.78a3.466,3.466,0,0,1,.268,1.419v3.568a1.46,1.46,0,0,0,.2.9.854.854,0,0,0,.681.233h.141V17h-.756a1.442,1.442,0,0,1-1.635-1.169h-.07A3.3,3.3,0,0,1,68.994,17.167Zm.352-1.23A2.305,2.305,0,0,0,71.2,15.1a3.438,3.438,0,0,0,.7-2.285l-2.285.439a3.076,3.076,0,0,0-1.34.479,1.114,1.114,0,0,0-.435.945,1.1,1.1,0,0,0,.417.949A1.785,1.785,0,0,0,69.346,15.937Zm9.817,1.23a4.1,4.1,0,0,1-2.329-.624A2.581,2.581,0,0,1,75.7,14.768l1.327-.378a1.851,1.851,0,0,0,.708,1.2,2.3,2.3,0,0,0,1.419.426,2.832,2.832,0,0,0,.831-.114,1.331,1.331,0,0,0,.637-.426,1.189,1.189,0,0,0,.185-1.143,1.526,1.526,0,0,0-.141-.286.87.87,0,0,0-.246-.237,3.245,3.245,0,0,0-.3-.185,3.067,3.067,0,0,0-.391-.163q-.259-.092-.417-.141t-.483-.141q-.325-.092-.5-.145a9.372,9.372,0,0,1-.9-.316A3.932,3.932,0,0,1,76.7,12.3a1.679,1.679,0,0,1-.567-.681,2.3,2.3,0,0,1-.189-.967,2.234,2.234,0,0,1,.422-1.38,2.374,2.374,0,0,1,1.094-.813A4.374,4.374,0,0,1,79,8.211a3.754,3.754,0,0,1,2.1.563,2.4,2.4,0,0,1,1.05,1.688l-1.248.316a1.655,1.655,0,0,0-.659-1.094A2.1,2.1,0,0,0,79,9.318a2.139,2.139,0,0,0-1.16.3,1.019,1.019,0,0,0-.483.927.923.923,0,0,0,.127.479,1.521,1.521,0,0,0,.259.338,1.594,1.594,0,0,0,.475.259q.343.136.51.185t.633.163q.088.026.132.035.51.132.831.233a5.105,5.105,0,0,1,.747.316,2.484,2.484,0,0,1,.672.47,2.178,2.178,0,0,1,.422.668,2.358,2.358,0,0,1,.176.932,2.516,2.516,0,0,1-.259,1.165,2.028,2.028,0,0,1-.708.8,3.422,3.422,0,0,1-1.006.435A4.8,4.8,0,0,1,79.163,17.167Z" transform="translate(1198.5 1772.002)" fill="#00223d"/>
    </g>
    <g id="Grupo_28145" data-name="Grupo 28145" transform="translate(1198.027 3095)">
      <path id="Trazado_56445" data-name="Trazado 56445" d="M2774.105,909.3s-69.046,5.586-69.046,26.039c0,16.841,31.078,84.854,36.827,111.022,1.07,4.871-5.4,12.01-5.08,12.806,1.5,3.759,9.559-1.594,9.559-1.594l6.2-18.794s-23.742-88.259-16.514-95.486,76.952-22.158,76.952-22.158Z" transform="translate(-2666.956 -741.324)" fill="#e76a53"/>
      <path id="Trazado_56446" data-name="Trazado 56446" d="M2748.016,942.953c5.682-17.045,57.7-20.69,57.7-20.69l22.241,3.442,8.484,2.581s-69.725,14.93-76.952,22.158c-4.526,4.526,3.093,40.832,9.421,67.339C2758.668,988.057,2744.806,952.583,2748.016,942.953Z" transform="translate(-2690.39 -748.474)" fill="#ff7f4c" opacity="0.68" style="mix-blend-mode: multiply;isolation: isolate"/>
      <path id="Trazado_56447" data-name="Trazado 56447" d="M2865.23,927.2s2.089,9.541-3.691,15.32-70.123,2.71-73.289,11.3c-5.622,15.262,9.188,90.141,9.188,90.141l-6.395,18.674s-8.73,5.891-9.547,3.683c-.39-1.052,6.136-9.408,5.373-16.091-2.845-24.912-35.632-96.035-30.872-110.316,5.682-17.045,57.7-20.69,57.7-20.69Z" transform="translate(-2694.792 -746.797)" fill="#ffa283"/>
      <path id="Trazado_56448" data-name="Trazado 56448" d="M2843.043,922.606s2.037,9.545-1.781,13.364-75.2,10.091-75.2,10.091,2.381-11.727-11.526-16.909-28.294-6.919-39.237-4.687c0,0,2.147-6.967,22.874-13s43.541-6.309,43.541-6.309Z" transform="translate(-2672.604 -739.036)" fill="#2ba14c"/>
      <path id="Trazado_56449" data-name="Trazado 56449" d="M2785.885,1197.218s1.481-.961,3.541,2.126,1.171,20.481,1.171,20.481l-3.259.722s-.1-12.757-.855-12.614-2.034,13.388-3.786,14.24-13.729,3.94-15.974,2.408,3.82-6.685,3.82-6.685,6.249-.338,6.9-1.286S2785.885,1197.218,2785.885,1197.218Z" transform="translate(-2700.693 -900.054)" fill="#352e73"/>
      <path id="Trazado_56450" data-name="Trazado 56450" d="M2916.522,535.166c-2.176.456-21.825.677-21.825,14.969s.284,19.973-3.409,26.223,2.458,21.413,7.064,21.464,4.988,16.6,4.988,16.6,26.583,11.931,33.968,8.806a12.174,12.174,0,0,1,6.046-.7c13.052,1.4,22.2-13.329,13.847-23.454q-.528-.641-1.144-1.257c-11.3-11.3-9.942-10.386-9.942-23.169s-2.272-9.09-7.67-16.761S2929.871,532.366,2916.522,535.166Z" transform="translate(-2769.052 -534.8)" fill="#2d2861"/>
      <path id="Trazado_56451" data-name="Trazado 56451" d="M2836.585,760.275s-12.413,33.806-26.938,38.824-21.128,20.864-21.128,20.864l8.6,7.564,28.209-12.582Z" transform="translate(-2712.991 -659.126)" fill="#ffa42f"/>
      <path id="Trazado_56452" data-name="Trazado 56452" d="M2855.471,801.34l5.474-1.9-7.643,37.105-14.06,6.271c1.152-7.578,4.1-19.138,6.438-27.747A69.066,69.066,0,0,0,2855.471,801.34Z" transform="translate(-2740.968 -680.73)" fill="#ff7a03"/>
      <path id="Trazado_56453" data-name="Trazado 56453" d="M2874.213,672.417c-3.978,3.977-27.8,25.116-22.991,38.168,10.677,28.988-7.915,61.956-7.915,66.5s56.749,19.886,69.249,19.886-15.032-39.922-9.918-53.559,11.908-68.311,7.646-72.572C2907.442,668,2875.009,671.622,2874.213,672.417Z" transform="translate(-2743.21 -609.206)" fill="#fcc13f"/>
      <path id="Trazado_56454" data-name="Trazado 56454" d="M2950.925,767.486c1.867-10.992,11.916-33.125,19.349-48.485-1.384,18.281-5.255,43.008-8.465,51.567-5.113,13.636,22.419,53.558,9.919,53.558a32.462,32.462,0,0,1-3.63-.261l-2-.267-.014,0C2966.072,823.584,2947.9,785.31,2950.925,767.486Z" transform="translate(-2802.381 -636.361)" fill="#ff7a03"/>
      <path id="Trazado_56455" data-name="Trazado 56455" d="M2918.832,610.638l-2.178,25.863s-14.621,30.834-7.627,33.39,22.982-32.208,22.982-32.208v-33.1Z" transform="translate(-2778.415 -573.249)" fill="#ffa283"/>
      <path id="Trazado_56456" data-name="Trazado 56456" d="M2944.12,604.58v16.749c-4.35,6.591-10.505,11.2-15.03,11.32l1.854-22.011Z" transform="translate(-2790.525 -573.249)" fill="#ff7f4c" opacity="0.68" style="mix-blend-mode: multiply;isolation: isolate"/>
      <path id="Trazado_56457" data-name="Trazado 56457" d="M2919.38,550.969s-7.67-3.408-10.227,11.931-.4,31.65,7.171,32.787,21.52-11.046,21.52-23.7C2937.845,561.118,2925.444,549.351,2919.38,550.969Z" transform="translate(-2778.963 -543.501)" fill="#ffa283"/>
      <path id="Trazado_56458" data-name="Trazado 56458" d="M2824.808,1197.218s1.481-.961,3.541,2.126,1.171,20.481,1.171,20.481l-3.258.722s-.1-12.757-.855-12.614-2.035,13.388-3.786,14.24-13.729,3.94-15.974,2.408,3.82-6.685,3.82-6.685,6.248-.338,6.895-1.286S2824.808,1197.218,2824.808,1197.218Z" transform="translate(-2722.163 -900.054)" fill="#352e73"/>
      <path id="Trazado_56459" data-name="Trazado 56459" d="M2751.836,911.461c20.727-6.037,43.541-6.309,43.541-6.309l25.947,7.384c-2.471.8-7.8,2.431-10.339,2.431-3.368,0-20.8,4.515-26.146,4.515-3.48,0-28.039-2.181-44.768-3.7A81.547,81.547,0,0,1,2751.836,911.461Z" transform="translate(-2686.268 -739.036)" fill="#1a3140" opacity="0.35"/>
      <path id="Trazado_56460" data-name="Trazado 56460" d="M2869.967,911.891v-4.378l-23.873,6.554h-10.459l.035,2.428,10.146-.226Z" transform="translate(-2738.979 -740.339)" fill="#686476"/>
      <path id="Trazado_56461" data-name="Trazado 56461" d="M2786.369,907.513l-60.61,1.585-41.687,7.172,78.425-2.2Z" transform="translate(-2655.38 -740.339)" fill="#1a3140"/>
      <path id="Trazado_56462" data-name="Trazado 56462" d="M2847.574,893.379s-8.9,3.115-13.521,1.782-7.836-1.981-12.409,1.188a18.18,18.18,0,0,0-6.093,6.518s-2.8,3.075,0,3.464,22.08-.19,22.615-.725,15.846-3.414,15.846-3.414Z" transform="translate(-2727.215 -732.543)" fill="#ffa283"/>
      <path id="Trazado_56463" data-name="Trazado 56463" d="M2937.851,764.542c-11.479,16.214-46.693,23.1-60.683,20.218,0,0-.4-4.561-6.539-10.7-1.421-1.421,42.066-18.31,47.059-21.19s6.743-77.43,6.743-77.43,7.521,3.166,11,14.164C2942.442,711.725,2946.943,751.7,2937.851,764.542Z" transform="translate(-2758.261 -612.335)" fill="#ffa42f"/>
      <path id="Trazado_56464" data-name="Trazado 56464" d="M2965.917,621.949a15.422,15.422,0,0,0,7.878-5.561,13.947,13.947,0,0,0-1.394-18.578c-11.3-11.3-9.943-10.386-9.943-23.169s1.285-15.792-4.113-23.462-12.131-18.825-25.479-16.025c-.172.035-.454.071-.826.111-.257.065-14.545.122-11.934,8.2a4.525,4.525,0,0,1,5.849,2.054c4.443,7.006,4.545,9.232,9.658,11.5s3.136,11.079,3.136,16.9c0,4.462.632,8.911.514,13.374-.135,5.081-9.845,40.435,18.77,35.21C2960.659,622.034,2963.292,622.724,2965.917,621.949Z" transform="translate(-2785.394 -534.713)" fill="#352e73"/>
      <path id="Trazado_56465" data-name="Trazado 56465" d="M2711.825,746.73l16.074,72a5.456,5.456,0,0,1-5.246,6.645l-75.645,1.114a5.457,5.457,0,0,1-5.318-3.925l-21.378-73.11a5.456,5.456,0,0,1,5.236-6.988h80.95A5.457,5.457,0,0,1,2711.825,746.73Z" transform="translate(-2620.09 -649.301)" fill="#352e73"/>
      <path id="Trazado_56466" data-name="Trazado 56466" d="M2753.385,764.418l14.828,66.418a5.456,5.456,0,0,1-5.245,6.645l-49.936.735c-7.484-13.62-19.853-38.148-19.853-51.495C2693.18,773.734,2729.836,767.246,2753.385,764.418Z" transform="translate(-2660.404 -661.412)" fill="#352e73" opacity="0.22" style="mix-blend-mode: screen;isolation: isolate"/>
    </g>
  </g>
</svg>
