<svg xmlns="http://www.w3.org/2000/svg" xmlns:xlink="http://www.w3.org/1999/xlink" width="1920" height="373.51" viewBox="0 0 1920 373.51">
  <defs>
    <clipPath id="clip-path">
      <rect id="Rectángulo_5991" data-name="Rectángulo 5991" width="1920" height="373.51" transform="translate(3.77 1.14)" fill="none"/>
    </clipPath>
  </defs>
  <g id="Grupo_29361" data-name="Grupo 29361" transform="translate(-3.77 -1.14)">
    <g id="Grupo_29360" data-name="Grupo 29360" clip-path="url(#clip-path)">
      <g id="Grupo_29359" data-name="Grupo 29359">
        <rect id="Rectángulo_5923" data-name="Rectángulo 5923" width="1923.47" height="372.41" transform="translate(0 1.14)" fill="#b5e8ff"/>
        <path id="Trazado_25137" data-name="Trazado 25137" d="M3.77,369.65h1920v5H3.77Z" fill="#0f3382" opacity="0.992" style="isolation: isolate"/>
        <g id="Grupo_29294" data-name="Grupo 29294" transform="translate(0 -179)">
          <path id="Trazado_57654" data-name="Trazado 57654" d="M609.84,374.65" fill="#00a19a"/>
          <g id="Grupo_29293" data-name="Grupo 29293">
            <path id="Trazado_57655" data-name="Trazado 57655" d="M271.7-161.594s16.4-45.882,55.626-40.783c0,0,56.947-76.474,117.673-10.2,0,0,64.551-16.422,112.356,14.219,31.873,20.429,42.4,41.859,42.4,41.859Z" fill="#f6fbff" opacity="0.5"/>
            <path id="Trazado_57656" data-name="Trazado 57656" d="M34.2-321.828s19.873-55.587,67.394-49.41c0,0,68.992-92.65,142.563-12.353,0,0,78.206-19.9,136.123,17.226,38.616,24.75,51.37,50.714,51.37,50.714Z" fill="#f6fbff" opacity="0.5"/>
            <path id="Trazado_57657" data-name="Trazado 57657" d="M700.02-369.509s26.382-48.677,89.468-43.268c0,0,91.592-81.131,189.262-10.817,0,0,103.823-17.423,180.712,15.084,51.264,21.674,68.2,44.409,68.2,44.409Z" fill="#f6fbff" opacity="0.5"/>
            <path id="Trazado_57658" data-name="Trazado 57658" d="M2293.31,513.613c-1.882,8.016-4,16.253-6.355,24.489-2.126,8.248-4.949,16.962-8,25.675-1.418,4.227-3.067,8.48-4.472,12.708-4.949,13.431-10.595,27.311-17.426,41.683-2.126,4.7-4.24,9.654-6.6,14.372-.592,1.468-1.276,2.951-1.985,4.42-.425.876-.876,1.753-1.314,2.629H1967.167l-81.947-.218H1151.476l-103.678-.117h-.322l-109.235-.128H372.261l-235.945-.233H-290.373s-.142-.387-.439-1.146c-.077-.233-.167-.491-.283-.787-.348-.915-.812-2.153-1.4-3.725l-.232-.464v-.231a.871.871,0,0,1-.232-.478,65.259,65.259,0,0,1-2.591-6.586c-.477-1.185-.941-2.6-1.649-4.009v-.476l-.232-.233c-3.236-8.4-7.244-19.345-11.871-32.57q-.619-1.8-1.276-3.635c-3.468-9.988-7.283-21.176-11.343-33.5-9.653-29.9-20.725-66.4-31.552-107.61-4.24-16.253-8.481-33.2-12.489-50.872-2.359-10.2-4.731-20.817-7-31.54q-.985-4.717-1.946-9.435c-4.163-20.081-8.081-40.767-11.613-61.9-4.653-27.763-8.649-56.3-11.69-85.274q-2.262-21.324-3.8-42.946c-.025-.373-.064-.761-.077-1.134-.039-.386-.064-.773-.09-1.16-1.392-20.287-2.269-40.717-2.527-61.133q-.309-24.649.606-49.261c.464-11.072,1.173-22.143,1.882-33.215,1.882-23.548,4.7-47.1,8.713-69.936,2.591-15.544,5.877-31.088,9.654-46.155a523.926,523.926,0,0,1,38.138-105.728c5.891-11.536,12.013-22.839,18.844-33.911,15.3-25.2,30.843-48.746,46.633-70.876h.231c8.236-11.768,16.485-22.839,24.721-33.447a876.34,876.34,0,0,1,93.729-104.078C225.791-810.96,669.906-461.27,944.725-704.523c268.67-237.6,771.43-241.127,996.3-21.9,4.24,4.241,8.712,8.481,12.953,13.186,36.412,38.641,64.5,83.765,81.742,135.308,13.289,39.685,20.145,83.173,19.411,130.424q-.117,7.443-.478,15.028a502.259,502.259,0,0,1-7.875,66.894q-4.194,22.89-10.62,46.774c-10.363,38.151-24.953,77.952-44.26,120.1q-2.843,5.994-5.659,12.013c-61.455,128.568-10.827,205.566,66.649,275.978,47.792,43.565,105.5,84.539,153.533,133.517,6.355,6.586,12.477,13.185,18.6,20.017,2.345,2.719,4.652,5.438,6.933,8.2,6.419,7.746,12.593,15.66,18.5,23.819q4.486,6.34,8.661,12.889a288.391,288.391,0,0,1,21.706,40.639,265.117,265.117,0,0,1,11.149,30.946,261.462,261.462,0,0,1,8.674,42.92C2304.562,435.441,2302.68,472.265,2293.31,513.613Z" fill="#dceaff"/>
            <path id="Trazado_57659" data-name="Trazado 57659" d="M1567.506,639.126H716.332L361.5,638.893h-641.69s-.374-.644-1.1-1.933c-.515-.915-1.211-2.153-2.114-3.725l-.348-.464v-.231s-.347-.246-.347-.478a54.967,54.967,0,0,1-3.893-6.586,41.482,41.482,0,0,0-2.487-4.009v-.476l-.348-.233c-4.86-8.4-10.892-19.345-17.852-32.57-.631-1.2-1.263-2.41-1.907-3.635-3.468-9.988-7.283-21.176-11.343-33.5-9.653-29.9-20.725-66.4-31.552-107.61-4.24-16.253-8.481-33.2-12.489-50.872-2.359-10.2-4.731-20.817-7-31.54q-.985-4.717-1.946-9.435c-4.163-20.081-8.081-40.767-11.613-61.9-6.934-41.387-12.412-84.513-15.493-128.22C-126.4,175.677,404.9,213.068,804.531,302.324,1368.437,428.262,1507.792,448.6,1746.676,471.2,1880.361,483.839,1727.82,567.708,1567.506,639.126Z" transform="translate(15 -16)" fill="#ffcd76"/>
            <path id="Trazado_57660" data-name="Trazado 57660" d="M1381.164,499.319S407.726,232.915,100.85,206.083s-12.9,35.88-12.9,35.88,833.063,218.73,1027.954,308.916S1381.164,499.319,1381.164,499.319Z" fill="#ffbf65"/>
            <path id="Trazado_57661" data-name="Trazado 57661" d="M802.769,664.163S172.046,297.832-33.923,229.063-47.2,256.423-47.2,256.423s540.925,305.936,662.6,409.4S802.769,664.163,802.769,664.163Z" transform="matrix(0.985, -0.174, 0.174, 0.985, -77.383, 52.451)" fill="#ffbf65"/>
            <g id="Grupo_29284" data-name="Grupo 29284">
              <g id="Grupo_29281" data-name="Grupo 29281">
                <path id="Trazado_57870" data-name="Trazado 57870" d="M-185.566,160.339V637.747H-290.881c-.051-.142-.1-.31-.167-.478-.039-.1-.078-.206-.116-.309-.348-.915-.812-2.153-1.4-3.725l-.232-.464v-.231a.871.871,0,0,1-.232-.478,65.259,65.259,0,0,1-2.591-6.586c-.477-1.185-.941-2.6-1.65-4.009v-.476l-.232-.233c-3.236-8.4-7.245-19.345-11.872-32.57q-.619-1.8-1.277-3.635c-3.467-9.988-7.282-21.176-11.343-33.5q-2.8-8.68-5.762-18.109c-8.172-26.112-17.067-56.274-25.793-89.5-4.242-16.253-8.482-33.2-12.491-50.872-2.359-10.2-4.731-20.817-7-31.54q-.985-4.717-1.946-9.435c-4.164-20.081-8.083-40.767-11.614-61.9-4.654-27.763-8.65-56.3-11.692-85.274q-2.262-21.324-3.8-42.946c-.026-.373-.065-.761-.078-1.134Z" fill="#fff2e7"/>
                <path id="Trazado_57871" data-name="Trazado 57871" d="M-272.123-37.993l111.567,229.672H178.393L1.681-37.154Z" fill="#f89b31"/>
                <path id="Trazado_57872" data-name="Trazado 57872" d="M165.016,191.679l-10.076-13.047L-11.7-37.154l-273.8-.839,99.93,205.715v470h340.51V191.679Z" fill="#fddbba"/>
                <path id="Rectángulo_5924" data-name="Rectángulo 5924" d="M0,0H93.272a0,0,0,0,1,0,0V112.679a42.363,42.363,0,0,1-42.363,42.363H43.785A43.785,43.785,0,0,1,0,111.257V0A0,0,0,0,1,0,0Z" transform="translate(36.168 231.885) rotate(-180)" fill="#f4cbaa"/>
                <path id="Trazado_57873" data-name="Trazado 57873" d="M2.581-38l-.76,1.019-6.6,8.79L-164.156,184.274l-15.107,20.145H-398.3q-2.262-21.324-3.8-42.946c-.026-.373-.065-.761-.078-1.134-.039-.386-.065-.773-.09-1.16-1.392-20.287-2.269-40.717-2.527-61.133L-299.788-37.945h44.51l155.484-.025Z" fill="#f89b31"/>
              </g>
              <g id="Grupo_29283" data-name="Grupo 29283">
                <path id="Trazado_57874" data-name="Trazado 57874" d="M25.252,255.826l79.43,163.515H345.994L220.185,256.422Z" fill="#f89b31"/>
                <g id="Grupo_29282" data-name="Grupo 29282">
                  <path id="Trazado_57875" data-name="Trazado 57875" d="M338.764,419.34,212.955,256.422l-194.934-.6L97.451,419.34h.527V637.268l240.782.473V419.34Z" fill="#fddbba"/>
                  <rect id="Rectángulo_5925" data-name="Rectángulo 5925" width="203.895" height="217.93" transform="translate(-105.917 419.338)" fill="#fff2e7"/>
                  <path id="Trazado_57876" data-name="Trazado 57876" d="M-128.324,429.008H90.714l129.475-172.59-65.247.012-150.027.032Z" fill="#f89b31"/>
                  <path id="Trazado_57877" data-name="Trazado 57877" d="M169.462,455.64v182.1H270.9V457.314a51.562,51.562,0,0,0-51.558-51.553,49.895,49.895,0,0,0-49.884,49.879Z" fill="#f4cbaa"/>
                  <path id="Trazado_57878" data-name="Trazado 57878" d="M231.569,347.2a11.384,11.384,0,1,0-11.384,11.383A11.383,11.383,0,0,0,231.569,347.2Z" fill="#f4cbaa"/>
                  <path id="Trazado_57879" data-name="Trazado 57879" d="M-128.324,429.008h41.571L154.941,256.43l-150.027.032Z" fill="#f28018"/>
                </g>
              </g>
            </g>
            <path id="Trazado_57880" data-name="Trazado 57880" d="M2055.135,78.418q-.117,7.441-.478,15.028a502.226,502.226,0,0,1-7.875,66.893l-313.189-4.111s28.344-66.907,96.14-59.47c0,0,98.42-111.528,203.362-14.874C2033.095,81.884,2041.4,80.106,2055.135,78.418Z" fill="#f6fbff"/>
            <path id="Trazado_57881" data-name="Trazado 57881" d="M1036.549-659.841s14.679-35.332,49.781-31.406c0,0,50.963-58.888,105.308-7.852,0,0,57.767-12.645,100.55,10.95,28.523,15.731,37.944,32.234,37.944,32.234Z" fill="#f6fbff"/>
            <path id="Trazado_57882" data-name="Trazado 57882" d="M-225.938-262.227s12-28.888,40.7-25.678c0,0,41.668-48.149,86.1-6.42,0,0,47.233-10.339,82.212,8.952C6.4-272.51,14.1-259.017,14.1-259.017Z" fill="#f6fbff"/>
            <path id="Trazado_57883" data-name="Trazado 57883" d="M2300.979,466.852a377.47,377.47,0,0,1-7.669,46.761c-.077.335-.155.67-.245,1.018-82.786,29.993-168.124,69.781-244.1,122.329H1843.524C1873.3,617.807,2018.414,537.458,2300.979,466.852Z" fill="#5e9f5c"/>
            <g id="Grupo_29288" data-name="Grupo 29288">
              <g id="Grupo_29285" data-name="Grupo 29285">
                <path id="Trazado_57884" data-name="Trazado 57884" d="M1844.662,423.131s157.648-13.82,200.5,0,64.283,78.1,58.16,125.038-20.407,86.729-47.956,85.708-222.434,0-222.434,0Z" fill="#f4bb6b"/>
                <path id="Trazado_57885" data-name="Trazado 57885" d="M1876.859,420.718s33.365-6.214,56.067-8.509c0,0-17.856,3.656-20.067,5.526,0,0,48.466-7.313,66.153-5.526s41.919,4.78,41.919,4.78l26.953-1.805s-22.447,2.721-21.256,3.062,21.937,2.89,28.569,7.141c0,0,20.577,6.463,25,10.374,0,0-16.5-8.333-22.958-7.823,0,0,37.381,25.93,37.482,50.633s-160.773-37.2-160.773-37.2Z" fill="#f4bb6b"/>
              </g>
              <g id="Grupo_29286" data-name="Grupo 29286">
                <path id="Trazado_57886" data-name="Trazado 57886" d="M1867.21,421.891s-62.748-4.77-102.54,45.734-7.651,167.455,44.383,167.9,116.129-7.548,129.995-75.481S1923.836,423.6,1867.21,421.891Z" fill="#ffcd76"/>
                <path id="Trazado_57887" data-name="Trazado 57887" d="M1738.721,522.661s22.447-25.849,24.828-32.992l3.4,7.143Z" fill="#ffcd76"/>
                <path id="Trazado_57888" data-name="Trazado 57888" d="M1754.922,484.393s2.845-18.532,11.008-25.334c0,0-7.419,12.424-5.5,22.787S1754.922,484.393,1754.922,484.393Z" fill="#ffcd76"/>
                <path id="Trazado_57889" data-name="Trazado 57889" d="M1765.93,615.511c.41.994-12.074-33.926-7.993-40.558l2.375.022S1761.934,605.818,1765.93,615.511Z" fill="#ffcd76"/>
                <path id="Trazado_57890" data-name="Trazado 57890" d="M1755.9,570.106s-9.353-3.061-14.625,0c0,0,8.667-2.426,13.944,2.721S1755.9,570.106,1755.9,570.106Z" fill="#ffcd76"/>
              </g>
              <g id="Grupo_29287" data-name="Grupo 29287">
                <path id="Trazado_57891" data-name="Trazado 57891" d="M1842.381,633.754c-14.427,0-31.794-2.448-46.62-11.522-16.025-9.808-26.493-25.621-31.113-47-7.866-36.4-4-66.259,11.482-88.758,14.476-21.033,38.92-34.729,70.69-39.609,21.439-3.3,40.008,3.636,53.686,20.039,19.766,23.7,25.445,63.746,13.812,97.375-8.221,23.762-30.176,38.439-58.732,39.265q-1.223.035-2.438.035c-28.763,0-54.693-14.7-63.6-36.314-9.075-22.028-8.6-43.577,1.325-60.676,10.084-17.363,29.126-28.658,53.618-31.8,22.172-2.857,34.135,7.472,40.261,16.63,11.821,17.672,11.792,46.378,3.868,60.239-7.633,13.351-28.761,23.657-47.11,23.018-13.24-.475-23.348-6.6-28.46-17.254-6.576-13.7-6.145-27.85,1.183-38.82,5.9-8.832,15.427-14.222,24.271-13.744,10.155.554,14.484,9.034,15.106,16.129.548,6.25-1.584,13.2-6.715,14.4-9.547,2.226-12.935-2.983-13.074-3.207,0,0-5.156-8.51,1.258-9.733,7.348-1.4,5.415,4.3,5.415,4.3.1.157-1.815,7.864,5.8,6.084,3.141-.733,5.2-5.836,4.7-11.619-.555-6.337-4.167-13.275-12.635-13.737-7.948-.451-16.553,4.505-21.947,12.581-6.8,10.181-7.163,23.385-1,36.227,5.986,12.47,17.546,15.457,26.19,15.768,17.464.6,37.539-9.107,44.738-21.7,6.672-11.672,8.465-39.184-3.773-57.478-8.194-12.25-21.245-17.611-37.745-15.487-23.664,3.038-42.018,13.876-51.682,30.517-9.511,16.377-9.926,37.1-1.168,58.359,8.747,21.232,34.891,35.485,63.531,34.655,27.421-.792,48.478-14.81,56.327-37.5,11.349-32.8,5.86-71.8-13.346-94.836-9.1-10.919-25.388-23.094-51.273-19.126-31.037,4.766-54.871,18.081-68.927,38.5-15.057,21.878-18.785,51.054-11.079,86.716,4.463,20.652,14.529,35.9,29.919,45.318,31.1,19.03,80.146,7.511,80.575,7.4l-5.551,3A130.308,130.308,0,0,1,1842.381,633.754Z" fill="#f4bb6b"/>
              </g>
            </g>
            <g id="Grupo_29292" data-name="Grupo 29292">
              <g id="Grupo_29289" data-name="Grupo 29289">
                <path id="Trazado_57892" data-name="Trazado 57892" d="M2088.54,349.922s211.981-18.584,269.606,0,86.436,105.02,78.2,168.132-27.441,116.621-64.485,115.249-299.1,0-299.1,0Z" fill="#f4bb6b"/>
                <path id="Trazado_57893" data-name="Trazado 57893" d="M2131.832,346.676s44.865-8.355,75.392-11.442c0,0-24.01,4.917-26.983,7.432,0,0,65.17-9.832,88.952-7.432s56.367,6.429,56.367,6.429l36.244-2.427s-30.185,3.659-28.584,4.116,29.5,3.887,38.417,9.6c0,0,27.669,8.689,33.614,13.949,0,0-22.181-11.2-30.871-10.519,0,0,50.266,34.866,50.4,68.083S2208.6,374.451,2208.6,374.451Z" fill="#f4bb6b"/>
              </g>
              <g id="Grupo_29290" data-name="Grupo 29290">
                <path id="Trazado_57894" data-name="Trazado 57894" d="M2118.859,348.254s-84.375-6.415-137.881,61.5-10.289,225.168,59.679,225.77,156.154-10.149,174.8-101.5S2195,350.553,2118.859,348.254Z" fill="#ffcd76"/>
                <path id="Trazado_57895" data-name="Trazado 57895" d="M1946.085,483.754s30.184-34.757,33.385-44.361l4.574,9.6Z" fill="#ffcd76"/>
                <path id="Trazado_57896" data-name="Trazado 57896" d="M1967.87,432.3s3.826-24.918,14.8-34.065c0,0-9.976,16.706-7.4,30.642S1967.87,432.3,1967.87,432.3Z" fill="#ffcd76"/>
                <path id="Trazado_57897" data-name="Trazado 57897" d="M1982.671,608.607c.552,1.338-16.235-45.619-10.747-54.537l3.192.03S1977.3,595.573,1982.671,608.607Z" fill="#ffcd76"/>
                <path id="Trazado_57898" data-name="Trazado 57898" d="M1969.18,547.553s-12.576-4.116-19.665,0c0,0,11.654-3.261,18.75,3.658S1969.18,547.553,1969.18,547.553Z" fill="#ffcd76"/>
              </g>
              <g id="Grupo_29291" data-name="Grupo 29291">
                <path id="Trazado_57899" data-name="Trazado 57899" d="M2085.472,633.137c-19.4,0-42.751-3.292-62.688-15.493-21.548-13.187-35.625-34.451-41.837-63.2-10.576-48.94-5.381-89.1,15.439-119.348,19.466-28.283,52.335-46.7,95.055-53.26,28.828-4.433,53.8,4.888,72.189,26.945,26.578,31.873,34.215,85.717,18.572,130.935-11.054,31.952-40.577,51.689-78.973,52.8q-1.644.048-3.28.047c-38.675,0-73.542-19.771-85.513-48.829-12.2-29.62-11.572-58.6,1.781-81.589,13.56-23.347,39.164-38.534,72.1-42.762,29.813-3.839,45.9,10.048,54.135,22.362,15.9,23.763,15.857,62.363,5.2,81-10.264,17.954-38.676,31.811-63.348,30.952-17.8-.64-31.4-8.879-38.269-23.2-8.842-18.423-8.263-37.449,1.589-52.2,7.932-11.876,20.746-19.124,32.638-18.482,13.655.744,19.476,12.148,20.312,21.688.738,8.4-2.128,17.755-9.03,19.367-12.837,2.993-17.391-4.013-17.579-4.312,0,0-6.933-11.445,1.692-13.09,9.879-1.883,7.282,5.784,7.282,5.784.14.212-2.441,10.575,7.8,8.181,4.223-.985,7-7.847,6.317-15.622-.747-8.522-5.6-17.851-16.99-18.472-10.686-.608-22.258,6.057-29.511,16.916-9.142,13.69-9.632,31.445-1.343,48.713,8.049,16.768,23.592,20.785,35.215,21.2,23.484.8,50.476-12.248,60.157-29.178,8.973-15.7,11.384-52.69-5.071-77.288-11.019-16.472-28.569-23.68-50.754-20.825-31.82,4.086-56.5,18.66-69.5,41.036-12.789,22.021-13.348,49.889-1.572,78.472,11.763,28.55,46.919,47.714,85.429,46.6,36.872-1.065,65.187-19.914,75.741-50.424,15.26-44.111,7.88-96.55-17.947-127.522-12.243-14.683-34.138-31.054-68.944-25.718-41.734,6.409-73.783,24.312-92.683,51.774-20.247,29.419-25.26,68.65-14.9,116.6,6,27.769,19.536,48.272,40.229,60.936,41.813,25.59,107.77,10.1,108.346,9.949l-7.463,4.031A175.293,175.293,0,0,1,2085.472,633.137Z" fill="#f4bb6b"/>
              </g>
            </g>
            <path id="Trazado_57900" data-name="Trazado 57900" d="M-10.464,637.269H-291.048c-.039-.1-.078-.206-.116-.309-.348-.915-.812-2.153-1.4-3.725l-.232-.464v-.231a.871.871,0,0,1-.232-.478,65.259,65.259,0,0,1-2.591-6.586c-.477-1.185-.941-2.6-1.65-4.009v-.476l-.232-.233c-3.236-8.4-7.245-19.345-11.872-32.57q-.619-1.8-1.277-3.635c-3.467-9.988-7.282-21.176-11.343-33.5q-2.8-8.68-5.762-18.109c27.727-7.721,63.975-13.043,96.252-2.565a121.935,121.935,0,0,1,45.942,26.771c22.21,20.21,31.388,40.187,57.246,32.415a93.068,93.068,0,0,1,22.4-3.441C-64.294,584.257-6.739,601.825-10.464,637.269Z" fill="#73b471"/>
            <path id="Rectángulo_5926" data-name="Rectángulo 5926" d="M3.3,0h2910.02a3.3,3.3,0,0,1,3.3,3.3V4.434a3.3,3.3,0,0,1-3.3,3.3H3.3A3.3,3.3,0,0,1,0,4.434V3.3A3.3,3.3,0,0,1,3.3,0Z" transform="translate(-452.296 632.526)" fill="#2d3554"/>
          </g>
        </g>
        <g id="Grupo_29346" data-name="Grupo 29346">
          <path id="Trazado_58166" data-name="Trazado 58166" d="M47.525,234.58c45.707-28.333,24.04-97.636-20.2-122.138S4.89,78.463,6.9,22.6c3.4-94.376-53.769-98.009-53.769-98.009s-53.769-3.083-53.769,98.009c0,55.9,23.819,65.34-20.421,89.842s-65.907,93.8-20.2,122.138c55.073,34.139-61.425,51.207-41.637,147.039,13.431,65.044,84.3,63.8,136.026,65.044,51.727-1.246,122.6,0,136.026-65.044C108.949,285.787-7.549,268.719,47.525,234.58Z" fill="#70cacd"/>
          <path id="Trazado_58167" data-name="Trazado 58167" d="M-48.424,426.568c1.2-4.193,6.517-301.584,0-356.887C-50.78,49.687-58.52,461.954-48.424,426.568Z" fill="#008ea7"/>
          <path id="Trazado_58168" data-name="Trazado 58168" d="M-107.95,140.976s50.468,76.122,58.588,74.337,62.133-72.046,56.59-75.924c-1.851-1.3-57.457,67.909-57.457,67.909S-111.419,127.229-107.95,140.976Z" fill="#008ea7"/>
          <path id="Trazado_58169" data-name="Trazado 58169" d="M-107.95,211.732s50.468,76.122,58.588,74.337,62.133-72.046,56.59-75.924c-1.851-1.3-57.457,67.909-57.457,67.909S-111.419,197.985-107.95,211.732Z" fill="#008ea7"/>
          <path id="Trazado_58170" data-name="Trazado 58170" d="M-107.95,301.21s50.468,76.123,58.588,74.337S12.771,303.5,7.228,299.623c-1.851-1.3-57.457,67.909-57.457,67.909S-111.419,287.463-107.95,301.21Z" fill="#008ea7"/>
        </g>
        <g id="Grupo_29347" data-name="Grupo 29347">
          <path id="Trazado_58171" data-name="Trazado 58171" d="M1982.17,152.38c30.609-18.975,16.1-65.385-13.527-81.794s-15.025-22.755-13.676-60.165c2.279-63.2-36.008-65.635-36.008-65.635s-36.008-2.064-36.008,65.635c0,37.434,15.952,43.757-13.675,60.165s-44.137,62.819-13.527,81.794c36.881,22.861-41.135,34.292-27.883,98.468,8.994,43.559,56.453,42.725,91.093,43.559,34.641-.834,82.1,0,91.094-43.559C2023.305,186.672,1945.288,175.241,1982.17,152.38Z" fill="#70cacd"/>
          <path id="Trazado_58172" data-name="Trazado 58172" d="M1917.915,280.95c.8-2.808,4.365-201.965,0-239C1916.338,28.56,1911.154,304.647,1917.915,280.95Z" fill="#008ea7"/>
          <path id="Trazado_58173" data-name="Trazado 58173" d="M1878.052,89.695s33.8,50.977,39.235,49.782,41.609-48.248,37.9-50.845c-1.239-.868-38.478,45.477-38.478,45.477S1875.728,80.489,1878.052,89.695Z" fill="#008ea7"/>
          <path id="Trazado_58174" data-name="Trazado 58174" d="M1878.052,137.078s33.8,50.978,39.235,49.782,41.609-48.247,37.9-50.844c-1.239-.868-38.478,45.477-38.478,45.477S1875.728,127.873,1878.052,137.078Z" fill="#008ea7"/>
          <path id="Trazado_58175" data-name="Trazado 58175" d="M1878.052,197s33.8,50.978,39.235,49.782,41.609-48.248,37.9-50.845c-1.239-.868-38.478,45.478-38.478,45.478S1875.728,187.794,1878.052,197Z" fill="#008ea7"/>
        </g>
        <g id="Grupo_29348" data-name="Grupo 29348">
          <rect id="Rectángulo_5954" data-name="Rectángulo 5954" width="131.388" height="449.308" transform="translate(1492.973 329.638) rotate(90)" fill="#70cacd"/>
          <rect id="Rectángulo_5955" data-name="Rectángulo 5955" width="54.963" height="6.285" transform="translate(1467.622 329.638) rotate(90)" fill="#008ea7"/>
          <rect id="Rectángulo_5956" data-name="Rectángulo 5956" width="54.963" height="6.285" transform="translate(1420.353 329.638) rotate(90)" fill="#008ea7"/>
          <rect id="Rectángulo_5957" data-name="Rectángulo 5957" width="26.961" height="6.285" transform="translate(1483.401 329.638) rotate(90)" fill="#008ea7"/>
          <rect id="Rectángulo_5958" data-name="Rectángulo 5958" width="26.961" height="6.285" transform="translate(1452.616 329.638) rotate(90)" fill="#008ea7"/>
          <rect id="Rectángulo_5959" data-name="Rectángulo 5959" width="26.961" height="6.285" transform="translate(1436.668 329.638) rotate(90)" fill="#008ea7"/>
          <rect id="Rectángulo_5960" data-name="Rectángulo 5960" width="54.963" height="6.285" transform="translate(1371.383 329.638) rotate(90)" fill="#008ea7"/>
          <rect id="Rectángulo_5961" data-name="Rectángulo 5961" width="26.961" height="6.285" transform="translate(1403.646 329.638) rotate(90)" fill="#008ea7"/>
          <rect id="Rectángulo_5962" data-name="Rectángulo 5962" width="26.961" height="6.285" transform="translate(1387.698 329.638) rotate(90)" fill="#008ea7"/>
          <rect id="Rectángulo_5963" data-name="Rectángulo 5963" width="54.963" height="6.285" transform="translate(1321.506 329.638) rotate(90)" fill="#008ea7"/>
          <rect id="Rectángulo_5964" data-name="Rectángulo 5964" width="26.961" height="6.285" transform="translate(1353.769 329.638) rotate(90)" fill="#008ea7"/>
          <rect id="Rectángulo_5965" data-name="Rectángulo 5965" width="26.961" height="6.285" transform="translate(1337.821 329.638) rotate(90)" fill="#008ea7"/>
          <rect id="Rectángulo_5966" data-name="Rectángulo 5966" width="54.963" height="6.285" transform="translate(1272.535 329.638) rotate(90)" fill="#008ea7"/>
          <rect id="Rectángulo_5967" data-name="Rectángulo 5967" width="26.961" height="6.285" transform="translate(1304.798 329.638) rotate(90)" fill="#008ea7"/>
          <rect id="Rectángulo_5968" data-name="Rectángulo 5968" width="26.961" height="6.285" transform="translate(1288.85 329.638) rotate(90)" fill="#008ea7"/>
          <rect id="Rectángulo_5969" data-name="Rectángulo 5969" width="54.963" height="6.285" transform="translate(1220.807 329.638) rotate(90)" fill="#008ea7"/>
          <rect id="Rectángulo_5970" data-name="Rectángulo 5970" width="26.961" height="6.285" transform="translate(1253.07 329.638) rotate(90)" fill="#008ea7"/>
          <rect id="Rectángulo_5971" data-name="Rectángulo 5971" width="26.961" height="6.285" transform="translate(1237.122 329.638) rotate(90)" fill="#008ea7"/>
          <rect id="Rectángulo_5972" data-name="Rectángulo 5972" width="54.963" height="6.285" transform="translate(1171.836 329.638) rotate(90)" fill="#008ea7"/>
          <rect id="Rectángulo_5973" data-name="Rectángulo 5973" width="26.961" height="6.285" transform="translate(1204.099 329.638) rotate(90)" fill="#008ea7"/>
          <rect id="Rectángulo_5974" data-name="Rectángulo 5974" width="26.961" height="6.285" transform="translate(1188.151 329.638) rotate(90)" fill="#008ea7"/>
          <rect id="Rectángulo_5975" data-name="Rectángulo 5975" width="54.963" height="6.285" transform="translate(1121.485 329.638) rotate(90)" fill="#008ea7"/>
          <rect id="Rectángulo_5976" data-name="Rectángulo 5976" width="26.961" height="6.285" transform="translate(1153.748 329.638) rotate(90)" fill="#008ea7"/>
          <rect id="Rectángulo_5977" data-name="Rectángulo 5977" width="26.961" height="6.285" transform="translate(1137.8 329.638) rotate(90)" fill="#008ea7"/>
          <rect id="Rectángulo_5978" data-name="Rectángulo 5978" width="54.963" height="6.285" transform="translate(1072.515 329.638) rotate(90)" fill="#008ea7"/>
          <rect id="Rectángulo_5979" data-name="Rectángulo 5979" width="26.961" height="6.285" transform="translate(1104.778 329.638) rotate(90)" fill="#008ea7"/>
          <rect id="Rectángulo_5980" data-name="Rectángulo 5980" width="26.961" height="6.285" transform="translate(1088.83 329.638) rotate(90)" fill="#008ea7"/>
        </g>
        <g id="Grupo_29349" data-name="Grupo 29349">
          <path id="Rectángulo_5981" data-name="Rectángulo 5981" d="M18.127,0h404.14a0,0,0,0,1,0,0V102.021a0,0,0,0,1,0,0H18.127A18.127,18.127,0,0,1,0,83.893V18.127A18.127,18.127,0,0,1,18.127,0Z" transform="translate(1481.703 215.35)" fill="#605575"/>
          <rect id="Rectángulo_5982" data-name="Rectángulo 5982" width="384.877" height="67.473" transform="translate(1518.969 232.623)" fill="#fffaef"/>
          <rect id="Rectángulo_5983" data-name="Rectángulo 5983" width="384.877" height="37.295" transform="translate(1518.969 233.254)" fill="#d6ece1"/>
        </g>
        <g id="Grupo_29350" data-name="Grupo 29350">
          <path id="Rectángulo_5984" data-name="Rectángulo 5984" d="M18.127,0h404.14a0,0,0,0,1,0,0V102.021a0,0,0,0,1,0,0H18.127A18.127,18.127,0,0,1,0,83.894V18.127A18.127,18.127,0,0,1,18.127,0Z" transform="translate(1482.68 317.1)" fill="#fab217"/>
          <path id="Rectángulo_5985" data-name="Rectángulo 5985" d="M17.557,0H421.29a0,0,0,0,1,0,0V49.407a0,0,0,0,1,0,0H0a0,0,0,0,1,0,0V17.557A17.557,17.557,0,0,1,17.557,0Z" transform="translate(1482.68 317.37)" fill="#f58a28"/>
          <rect id="Rectángulo_5986" data-name="Rectángulo 5986" width="40.039" height="102.676" transform="translate(1542.765 317.1)" fill="#605575"/>
          <rect id="Rectángulo_5987" data-name="Rectángulo 5987" width="40.039" height="102.676" transform="translate(1838.751 317.1)" fill="#605575"/>
          <rect id="Rectángulo_5988" data-name="Rectángulo 5988" width="191.275" height="58.298" transform="translate(1612.175 335.268)" fill="#605575"/>
        </g>
        <g id="Grupo_29351" data-name="Grupo 29351">
          <path id="Trazado_58176" data-name="Trazado 58176" d="M1675.812,83.621s24.253,3.438,40.3,24.2l-14.855,14.226s-24.581-8.637-24.581-15.033C1676.673,104.543,1675.812,83.621,1675.812,83.621Z" fill="#605575"/>
          <path id="Trazado_58177" data-name="Trazado 58177" d="M1682.384,65.038c.563-.991,1.52-4.593,7.335-2.436s6.21-6.571,7.4-5.72,1.484,5.331-1.018,7.265-11.593,2.211-10.676,7.008,45.428,35.5,41.673,43.986-12.625,9.894-20.155,4.069S1674.846,78.3,1682.384,65.038Z" fill="#e57373"/>
          <path id="Trazado_58178" data-name="Trazado 58178" d="M1657.819,48.6s-.278-8.037-4.019-7.275-6.442,8.66-4.433,11.57S1657.888,55.324,1657.819,48.6Z" fill="#e57373"/>
          <path id="Trazado_58179" data-name="Trazado 58179" d="M1762.342,266.505l1.6,13.312c2.177,0,25.4-1.451,25.644-2.9s-17.9-3.75-17.9-3.75.085-5.643-.242-6.411C1771.146,266.049,1762.342,266.505,1762.342,266.505Z" fill="#383a45"/>
          <path id="Trazado_58180" data-name="Trazado 58180" d="M1727.248,289.16l-3.515,12.94c2.018.818,24.087,8.2,24.856,6.943s-15.182-10.2-15.182-10.2,2.2-5.2,2.184-6.032C1735.578,292.045,1727.248,289.16,1727.248,289.16Z" fill="#383a45"/>
          <path id="Trazado_58181" data-name="Trazado 58181" d="M1660.6,82.208s-17.14-1.072-25.71,5.356S1629,217.737,1629,217.737l55.17-12.855s3.749-114.1-3.214-118.925S1660.6,82.208,1660.6,82.208Z" fill="#605575"/>
          <path id="Trazado_58182" data-name="Trazado 58182" d="M1629,201.118s90.522-73.382,121.053-41.244,22.5,111.412,22.5,111.412H1759.7s-4.821-89.986-25.71-94.807-42.7,21.068-42.7,21.068,31.988-6.606,49.664,10c12.342,11.594-3.75,89.45-3.75,89.45h-12.855s10.206-79.781-7.752-79.259-87.59,0-87.59,0Z" fill="#f05757"/>
          <path id="Trazado_58183" data-name="Trazado 58183" d="M1581.33,204.136,1755.457,76.454l50.839-14.26-34.281,40.172L1595.257,230.918Z" fill="#f9b57c"/>
          <path id="Trazado_58184" data-name="Trazado 58184" d="M1755.457,76.454l-6.841,13.569,13.726,1-2.142,10.517,11.816.825L1595.433,233.254l-14.1-29.118Z" fill="#fab217"/>
          <path id="Trazado_58185" data-name="Trazado 58185" d="M1778.249,70.061l10.012,13.268L1806.3,62.194Z" fill="#383a45"/>
          <path id="Trazado_58186" data-name="Trazado 58186" d="M1615.5,131.931s-3.847,43.993,6.34,44.362,45.124-18.682,48.555-19.322c5.679-1.06,11.507,3.165,12.111,2.664s-.717-7.9-12.918-9.713c-10.045-1.492-36.441,9.228-38.444,4.932s6.288-67.29,6.288-67.29S1614.791,95.03,1615.5,131.931Z" fill="#e57373"/>
          <path id="Trazado_58187" data-name="Trazado 58187" d="M1609.456,125.58s21.535,9.7,24.54,6.351S1647.033,83,1647.033,83,1618.49,83.329,1609.456,125.58Z" fill="#605575"/>
          <path id="Trazado_58188" data-name="Trazado 58188" d="M1680.964,30.081s9.493,31.449-3.9,35.2-10.951-10.439-10.415-7.76,3.945,24.748,3.945,24.748-6.782,8.645-19.567,1.16c-2.035-1.192,5.447-35.638,7-53.128C1658.7,22.66,1676.139,21.073,1680.964,30.081Z" fill="#e57373"/>
          <path id="Trazado_58189" data-name="Trazado 58189" d="M1613.676,59.628c7.739-12.414,21.263-6.592,21.559-18.349s13.624-29.548,37.543-22.689c11.451,3.283,11,10.737.363,10.484s-11,8.007-11.887,12.2-3.625,8.889-4.361,6.656c-2.795-8.474-6.212-4.124-6.212-4.124s-4.072,6.656,0,8.594,5.691-.383,6.212,2.4,3.474,19.573-8.184,20.064-7.675,7.541-20.464,10.2S1606.632,70.928,1613.676,59.628Z" fill="#383a45"/>
        </g>
        <g id="Grupo_29355" data-name="Grupo 29355">
          <path id="Trazado_58204" data-name="Trazado 58204" d="M1365.536,150.365s-1.293-5.48-5.557-3.014-.327,9.544,4.019,11.216S1365.536,150.365,1365.536,150.365Z" fill="#e57373"/>
          <path id="Trazado_58205" data-name="Trazado 58205" d="M1395.455,149.505s1.293-5.48,5.558-3.014.326,9.544-4.019,11.216S1395.455,149.505,1395.455,149.505Z" fill="#e57373"/>
          <path id="Trazado_58206" data-name="Trazado 58206" d="M1396.718,134.205c.6,2.111-1.181,34.086-14.553,37.392s-18.969-21.639-18.036-36.064S1391.69,116.61,1396.718,134.205Z" fill="#e57373"/>
          <path id="Trazado_58207" data-name="Trazado 58207" d="M1422.409,355.99l13.8,3.918c-.363,2.3-5.776,26.6-7.35,26.613s-.973-19.544-.973-19.544-5.977-.853-6.734-1.326C1420.457,365.217,1422.409,355.99,1422.409,355.99Z" fill="#383a45"/>
          <path id="Trazado_58208" data-name="Trazado 58208" d="M1322.229,359.328l-13.557,4.687c.492,2.277,7.262,26.233,8.835,26.158s-.128-19.568-.128-19.568,5.92-1.187,6.649-1.7C1324.7,368.43,1322.229,359.328,1322.229,359.328Z" fill="#383a45"/>
          <path id="Trazado_58209" data-name="Trazado 58209" d="M1366.146,310.319s71.43-31.808,105.607-5.184c44.525,34.684-149.532,66.12-149.532,66.12l-5.216-11.444s131.656-50.638,111.027-42.616S1342.078,338.97,1366.146,310.319Z" fill="#027878"/>
          <path id="Trazado_58210" data-name="Trazado 58210" d="M1385.323,304.141s-79.853-23.968-114.234,2.391,150.419,68.544,150.419,68.544l7.1-18.393s-129.488-47.857-109-39.488C1352.183,330.5,1409.39,332.792,1385.323,304.141Z" fill="#027878"/>
          <path id="Trazado_58211" data-name="Trazado 58211" d="M1352.183,213.554s-60.283,32.444-49.4,57.084,38.014,38.715,41.452,43.873,5.216,13.14,5.216,13.14-2.694-2.826-11.977-5.691-54.035-26.825-54.035-57.688,50.02-70.809,59.077-75.711S1352.183,213.554,1352.183,213.554Z" fill="#e57373"/>
          <path id="Trazado_58212" data-name="Trazado 58212" d="M1411.262,212.512s52.383,38.885,41.495,63.525-32.841,33.316-36.28,38.474-5.215,13.14-5.215,13.14,2.694-2.826,11.977-5.691,50.279-25.9,50.279-56.765-46.265-71.732-55.321-76.634S1411.262,212.512,1411.262,212.512Z" fill="#e57373"/>
          <path id="Trazado_58213" data-name="Trazado 58213" d="M1332.451,316.132h87.787s5.284-125.181-1.584-128.927c-22.546-12.3-76.031-5.624-78.738,0S1332.451,316.132,1332.451,316.132Z" fill="#605575"/>
          <path id="Trazado_58214" data-name="Trazado 58214" d="M1332.261,277.554s-3.274,60.523,0,61.732,84.456,1.128,87.434,0,2.149-61.732,2.149-61.732S1356.678,274.142,1332.261,277.554Z" fill="#d6ece1"/>
          <path id="Trazado_58215" data-name="Trazado 58215" d="M1332.261,334.969s-3.274,7.128,0,7.27,84.456.133,87.434,0,2.149-7.27,2.149-7.27S1356.678,334.567,1332.261,334.969Z" fill="#9bd5ca"/>
          <path id="Trazado_58216" data-name="Trazado 58216" d="M1388.407,156.587s4.187,23.781,2.617,26.359-5.809,8.023-9.708,8.023-8.288-8.012-8.579-9.307,0-28.8,0-28.8S1383.959,147.419,1388.407,156.587Z" fill="#e57373"/>
          <path id="Trazado_58217" data-name="Trazado 58217" d="M1367.484,126.647s2.639-11.6,9.831-10.45,17.952-.821,21.39,2.956,4.963,12.021-2.491,13.554-24.838-7.214-27.019-.251c-5.654,18.05,2.125,26.729,2.125,26.729,4.466,1.146,17.189.209,20.056-1.452,5.442-3.151-.036-28.078,2.542-27.791s4.585,1.5,4.3,7.768-1.738,34.993-7.179,37.2c-3.686,1.5-17.174.888-19.323-1.054-4.14-3.74-12.177-32.166-9.885-39.043S1364.164,126.91,1367.484,126.647Z" fill="#383a45"/>
          <path id="Trazado_58218" data-name="Trazado 58218" d="M1349.671,218.416s-21.2,17.909-25.086,21.209-21.8-15.423-21.8-18.788,34.324-31.958,37.129-33.632S1351.78,203.333,1349.671,218.416Z" fill="#605575"/>
          <path id="Trazado_58219" data-name="Trazado 58219" d="M1408.9,218.416s21.2,17.909,25.087,21.209,21.8-15.423,21.8-18.788-34.324-31.958-37.128-33.632S1406.79,203.333,1408.9,218.416Z" fill="#605575"/>
        </g>
        <g id="Grupo_29358" data-name="Grupo 29358" transform="translate(37 -105)">
          <g id="Grupo_29356" data-name="Grupo 29356">
            <path id="Trazado_58220" data-name="Trazado 58220" d="M1005.62,402.7s-57.178,27.557-103.416,8.443c-45.949-18.995-51.357-18.8-58.392-15.73s10.426-16.632,45.728,0c10.794,5.086,67.8,5.177,112.018-25.378C1001.558,370.035,1015.987,394.28,1005.62,402.7Z" fill="#e57373"/>
            <path id="Trazado_58221" data-name="Trazado 58221" d="M1109.98,244.385s7.787-5.011,13.391-3.878,6.541-5.2,6.541-5.2,1.222,6.9-6.541,9.077-14.094.841-13.391,16.635,35.249,108.655-38.663,129.119c0,0-14.1-25.529-11.99-31.789s34.56-22.676,35.22-49.995S1096.59,248.263,1109.98,244.385Z" fill="#e57373"/>
            <path id="Trazado_58222" data-name="Trazado 58222" d="M985.352,472.942s-14.971,37.327-54.532,41.772S860.6,477.052,860.6,477.052l-14.561,9.186s19.477,50.3,71.509,61.545,88.553-28.031,88.553-28.031,10.97,5.9,6.756,50.847c-5.288,56.41-10.559,88.957-10.559,88.957h17.4s24.953-59.761,29.126-102.579c4.858-49.858-3.589-75.332-3.589-75.332Z" fill="#383a45"/>
            <path id="Trazado_58223" data-name="Trazado 58223" d="M860.254,480.869,851.5,470.716c-1.807,1.215-20.272,15.377-19.663,16.717s16.95-6.876,16.95-6.876,3.078,4.731,3.777,5.185C853.2,486.159,860.254,480.869,860.254,480.869Z" fill="#383a45"/>
            <path id="Trazado_58224" data-name="Trazado 58224" d="M1006.26,657.082l1.132,13.36c2.176.077,25.438-.552,25.731-1.994s-17.759-4.381-17.759-4.381.285-5.637-.015-6.415C1015.075,656.938,1006.26,657.082,1006.26,657.082Z" fill="#383a45"/>
            <path id="Trazado_58225" data-name="Trazado 58225" d="M976.642,487.581s22.82-58.79,23.229-104.83c.3-33.769,68.566-27.113,70.919-12.1,5.247,33.484-19.44,143.55-19.44,143.55Z" fill="#fab217"/>
            <path id="Trazado_58226" data-name="Trazado 58226" d="M1047.337,359.273s27.463-15.949,28.8-16.752,29.459,27.517,29.459,27.517-25.516,26.32-39.174,27.5S1040.532,360.269,1047.337,359.273Z" fill="#fab217"/>
            <path id="Trazado_58227" data-name="Trazado 58227" d="M958.866,386.112s2.353,29.525,4.706,31.064,43.694-7.872,47.055-11.569,7.956-43.7,5.761-42.653S962.227,384.432,958.866,386.112Z" fill="#fab217"/>
            <path id="Trazado_58228" data-name="Trazado 58228" d="M1034.994,328.416s-.277-8.036-4.018-7.274-6.443,8.66-4.434,11.57S1035.063,335.137,1034.994,328.416Z" fill="#e57373"/>
            <path id="Trazado_58229" data-name="Trazado 58229" d="M1059.9,319.119s7.736,22.223-5.654,25.972-10.951-10.439-10.415-7.76,3.945,24.748,3.945,24.748-6.782,8.645-19.567,1.16c-2.035-1.191,5.447-35.638,7-53.128C1035.879,302.472,1055.071,310.112,1059.9,319.119Z" fill="#e57373"/>
            <path id="Trazado_58230" data-name="Trazado 58230" d="M1036.5,303.248s3.021-10.406,9.441-7.97,5.535,5.977,10.184,3.985,9.411,5.313,6.948,9.963c-3.228,6.093-3.184,7.97-12.04,5.977s-13.505-5.092-15.5-1.55,1.549,12.62-1.107,13.727S1032,321.4,1030,324.059s-5.092,9.444.221,8.6,1.386,6.243-.635,6.019-11.263-7.792-10.213-17.936c.664-6.42,7.408-3.1,5.535-7.749S1027.283,298.377,1036.5,303.248Z" fill="#383a45"/>
          </g>
          <g id="Grupo_29357" data-name="Grupo 29357">
            <circle id="Elipse_1392" data-name="Elipse 1392" cx="66.627" cy="66.627" r="66.627" transform="translate(990.424 96.11) rotate(-45)" fill="#ffcc05"/>
            <path id="Trazado_58231" data-name="Trazado 58231" d="M1101.964,193.653,1084.649,96.11l-65.6,11.645s5.335,32.248,32.33,48.494c20.213,12.165,25.484,41.86,25.484,41.86Z" fill="#ffcc05"/>
            <path id="Trazado_58232" data-name="Trazado 58232" d="M1101.515,193.733,1084.2,96.19l65.6-11.645s6.089,32.114-13.665,56.659c-14.791,18.378-9.519,48.073-9.519,48.073Z" fill="#ffcc05"/>
            <path id="Trazado_58233" data-name="Trazado 58233" d="M1083,198.449a1.406,1.406,0,0,1-1.631-1.14l-12.3-69.276a1.407,1.407,0,0,1,2.609-.941c4.191,7.392,9.211,13.8,10.76,13.736a5.482,5.482,0,0,0,.618-1.935,12.483,12.483,0,0,1-.768-1.4c-1.835-3.9-2.814-11.617-.468-13.053a1.744,1.744,0,0,1,2.024.125c1.781,1.379,2.627,8.746,2.14,13.576a2.9,2.9,0,0,0,3.43,1.044,4.029,4.029,0,0,0,2.422-2.284,14.416,14.416,0,0,1-3.788-6.554c-.728-2.653-.822-5.94,1.1-7.216a2.237,2.237,0,0,1,2.473,0c2.31,1.4,4.1,7.211,3.607,11.725-.036.332-.085.654-.144.966a5.441,5.441,0,0,0,2.4.705,2.213,2.213,0,0,0,2.035-1.021c-2.128-3.386-4.011-8.031-3.864-10.884a3.261,3.261,0,0,1,1.909-3.143,2.9,2.9,0,0,1,3.292.824c2.192,2.269,3.368,8.707,1.876,12.981a8.368,8.368,0,0,0,1.333,1.532c.974-1.916,2.035-9.431,2.459-15.908a1.407,1.407,0,0,1,2.789-.154l11.515,64.867a1.407,1.407,0,1,1-2.771.492l-9.763-55c-.614,3.934-1.509,7.38-2.8,8.326a2.2,2.2,0,0,1-2.453.053,7.036,7.036,0,0,1-1.826-1.634,4.89,4.89,0,0,1-3.872,1.48,8.188,8.188,0,0,1-3.179-.816,6.742,6.742,0,0,1-3.838,3.324,5.508,5.508,0,0,1-5.007-.566c-.724,1.828-1.839,2.3-2.68,2.354-2.736.184-6.495-4.357-9.507-8.822l11.007,62A1.408,1.408,0,0,1,1083,198.449Zm7.509-72.575a8.16,8.16,0,0,0,.449,4.368,12.456,12.456,0,0,0,1.538,3.124A14.227,14.227,0,0,0,1090.508,125.874Zm8.093-1.8a3.23,3.23,0,0,0-.051,1.872,20.814,20.814,0,0,0,2.014,5.7C1100.779,127.91,1099.4,124.322,1098.6,124.075Z" fill="#fffaef"/>
            <path id="Trazado_58234" data-name="Trazado 58234" d="M1134.935,90.74c-.153.027-.307.047-.464.06-3.08.249-5.875-2.408-6.243-5.935-3.008-28.87-23.474-31.148-24.343-31.231-3.1-.295-5.524-3.391-5.414-6.914s2.7-6.149,5.812-5.846c10.694,1.019,31.791,11.335,35.1,43.087C1139.731,87.309,1137.768,90.237,1134.935,90.74Z" fill="#fffaef"/>
            <rect id="Rectángulo_5989" data-name="Rectángulo 5989" width="52.409" height="43.606" transform="matrix(0.985, -0.175, 0.175, 0.985, 1074.909, 190.523)" fill="#383a45"/>
            <rect id="Rectángulo_5990" data-name="Rectángulo 5990" width="38.082" height="30.841" transform="translate(1085.449 212.248) rotate(-10.066)" fill="#383a45"/>
            <path id="Trazado_58235" data-name="Trazado 58235" d="M1094.67,42.144a6.17,6.17,0,1,1-7.154-5A6.17,6.17,0,0,1,1094.67,42.144Z" fill="#fffaef"/>
          </g>
          <path id="Trazado_58236" data-name="Trazado 58236" d="M1068.054,1.98a3.88,3.88,0,0,0-3.133,4.486l1.721,9.7a3.87,3.87,0,1,0,7.62-1.352l-1.722-9.7A3.88,3.88,0,0,0,1068.054,1.98Z" fill="#ffcc05"/>
          <path id="Trazado_58237" data-name="Trazado 58237" d="M1097.168.129a3.882,3.882,0,0,0-4.393,3.263l-1.438,9.744a3.869,3.869,0,1,0,7.656,1.13l1.438-9.744A3.881,3.881,0,0,0,1097.168.129Z" fill="#ffcc05"/>
          <path id="Trazado_58238" data-name="Trazado 58238" d="M1126.228,5.572a3.881,3.881,0,0,0-5.349,1.154L1115.539,15a3.869,3.869,0,0,0,6.5,4.195l5.339-8.277A3.881,3.881,0,0,0,1126.228,5.572Z" fill="#ffcc05"/>
          <path id="Trazado_58239" data-name="Trazado 58239" d="M1146.051,21.239a3.88,3.88,0,0,0-5.463.307l-6.563,7.344a3.869,3.869,0,1,0,5.771,5.156l6.562-7.344A3.88,3.88,0,0,0,1146.051,21.239Z" fill="#ffcc05"/>
          <path id="Trazado_58240" data-name="Trazado 58240" d="M1164.971,44.231a3.882,3.882,0,0,0-5.083-2.027L1150.84,46.1A3.869,3.869,0,1,0,1153.9,53.2l9.048-3.89A3.88,3.88,0,0,0,1164.971,44.231Z" fill="#ffcc05"/>
          <path id="Trazado_58241" data-name="Trazado 58241" d="M1177.814,65.741a3.882,3.882,0,0,0-4.328-3.349l-9.77,1.247a3.869,3.869,0,1,0,.979,7.676l9.77-1.246A3.882,3.882,0,0,0,1177.814,65.741Z" fill="#ffcc05"/>
          <path id="Trazado_58242" data-name="Trazado 58242" d="M1182.186,90.933a3.88,3.88,0,0,0-3.94-3.8l-9.848.184a3.869,3.869,0,0,0,.145,7.737l9.847-.184A3.88,3.88,0,0,0,1182.186,90.933Z" fill="#ffcc05"/>
          <path id="Trazado_58243" data-name="Trazado 58243" d="M1180.579,114.958a3.881,3.881,0,0,0-2.86-4.666l-9.577-2.3a3.869,3.869,0,0,0-1.806,7.525l9.577,2.3A3.881,3.881,0,0,0,1180.579,114.958Z" fill="#ffcc05"/>
          <path id="Trazado_58244" data-name="Trazado 58244" d="M1174.761,139.268a3.881,3.881,0,0,0-1.5-5.263l-8.6-4.792a3.87,3.87,0,0,0-3.766,6.761l8.605,4.792A3.881,3.881,0,0,0,1174.761,139.268Z" fill="#ffcc05"/>
          <path id="Trazado_58245" data-name="Trazado 58245" d="M1158.771,155.9a3.881,3.881,0,0,0,.995-5.381l-5.582-8.115a3.869,3.869,0,0,0-6.376,4.386l5.582,8.114A3.881,3.881,0,0,0,1158.771,155.9Z" fill="#ffcc05"/>
          <path id="Trazado_58246" data-name="Trazado 58246" d="M1043.4,9.675a3.88,3.88,0,0,1,5.247,1.551l4.7,8.654a3.869,3.869,0,1,1-6.8,3.7l-4.7-8.653A3.88,3.88,0,0,1,1043.4,9.675Z" fill="#ffcc05"/>
          <path id="Trazado_58247" data-name="Trazado 58247" d="M1017.984,24.787a3.881,3.881,0,0,1,5.42-.758l7.861,5.933a3.869,3.869,0,1,1-4.662,6.177l-7.861-5.933A3.88,3.88,0,0,1,1017.984,24.787Z" fill="#ffcc05"/>
          <path id="Trazado_58248" data-name="Trazado 58248" d="M1004.764,46.319A3.88,3.88,0,0,1,1010,44.727l8.689,4.637a3.869,3.869,0,1,1-3.643,6.827l-8.689-4.637A3.88,3.88,0,0,1,1004.764,46.319Z" fill="#ffcc05"/>
          <path id="Trazado_58249" data-name="Trazado 58249" d="M994.913,74.418a3.881,3.881,0,0,1,4.075-3.652l9.835.539a3.869,3.869,0,1,1-.424,7.727l-9.834-.539A3.881,3.881,0,0,1,994.913,74.418Z" fill="#ffcc05"/>
          <path id="Trazado_58250" data-name="Trazado 58250" d="M990.258,99.034a3.882,3.882,0,0,1,2.911-4.634l9.6-2.192a3.87,3.87,0,1,1,1.723,7.545l-9.6,2.192A3.882,3.882,0,0,1,990.258,99.034Z" fill="#ffcc05"/>
          <path id="Trazado_58251" data-name="Trazado 58251" d="M994.823,124.192a3.88,3.88,0,0,1,2.394-4.92l9.309-3.217a3.869,3.869,0,1,1,2.527,7.314l-9.309,3.217A3.881,3.881,0,0,1,994.823,124.192Z" fill="#ffcc05"/>
          <path id="Trazado_58252" data-name="Trazado 58252" d="M1004.6,146.2a3.882,3.882,0,0,1,1.079-5.365l8.2-5.454a3.869,3.869,0,1,1,4.286,6.443l-8.2,5.455A3.882,3.882,0,0,1,1004.6,146.2Z" fill="#ffcc05"/>
          <path id="Trazado_58253" data-name="Trazado 58253" d="M1018.431,167.019a3.881,3.881,0,0,1-.405-5.457l6.429-7.461a3.869,3.869,0,0,1,5.863,5.051l-6.43,7.461A3.881,3.881,0,0,1,1018.431,167.019Z" fill="#ffcc05"/>
          <path id="Trazado_58254" data-name="Trazado 58254" d="M1039.169,177.133a3.88,3.88,0,0,1-2.786-4.709l2.448-9.541a3.869,3.869,0,1,1,7.495,1.924l-2.447,9.54A3.881,3.881,0,0,1,1039.169,177.133Z" fill="#ffcc05"/>
        </g>
      </g>
    </g>
  </g>
</svg>
